<?xml version="1.0" encoding="utf-8" standalone="no"?>
<!DOCTYPE svg PUBLIC "-//W3C//DTD SVG 1.1//EN"
  "http://www.w3.org/Graphics/SVG/1.1/DTD/svg11.dtd">
<svg xmlns:xlink="http://www.w3.org/1999/xlink" width="460.8pt" height="345.6pt" viewBox="0 0 460.8 345.6" xmlns="http://www.w3.org/2000/svg" version="1.1">
 <metadata>
  <rdf:RDF xmlns:dc="http://purl.org/dc/elements/1.1/" xmlns:cc="http://creativecommons.org/ns#" xmlns:rdf="http://www.w3.org/1999/02/22-rdf-syntax-ns#">
   <cc:Work>
    <dc:type rdf:resource="http://purl.org/dc/dcmitype/StillImage"/>
    <dc:date>2024-06-03T17:06:01.609397</dc:date>
    <dc:format>image/svg+xml</dc:format>
    <dc:creator>
     <cc:Agent>
      <dc:title>Matplotlib v3.8.0, https://matplotlib.org/</dc:title>
     </cc:Agent>
    </dc:creator>
   </cc:Work>
  </rdf:RDF>
 </metadata>
 <defs>
  <style type="text/css">*{stroke-linejoin: round; stroke-linecap: butt}</style>
 </defs>
 <g id="figure_1">
  <g id="patch_1">
   <path d="M 0 345.6 
L 460.8 345.6 
L 460.8 0 
L 0 0 
z
" style="fill: #ffffff"/>
  </g>
  <g id="axes_1">
   <g id="patch_2">
    <path d="M 57.6 307.584 
L 414.72 307.584 
L 414.72 41.472 
L 57.6 41.472 
z
" style="fill: #ffffff"/>
   </g>
   <g id="matplotlib.axis_1">
    <g id="xtick_1">
     <g id="line2d_1">
      <defs>
       <path id="ma83ec27b51" d="M 0 0 
L 0 3.5 
" style="stroke: #000000; stroke-width: 0.8"/>
      </defs>
      <g>
       <use xlink:href="#ma83ec27b51" x="57.6" y="307.584" style="stroke: #000000; stroke-width: 0.8"/>
      </g>
     </g>
     <g id="text_1">
      <!-- 95 -->
      <g transform="translate(52.6 321.413687) scale(0.1 -0.1)">
       <defs>
        <path id="STIXGeneral-Regular-39" d="M 378 -141 
L 358 -13 
Q 1094 115 1603 608 
Q 2112 1101 2304 1882 
Q 1933 1517 1344 1517 
Q 826 1517 509 1875 
Q 192 2234 192 2816 
Q 192 3462 573 3894 
Q 954 4326 1523 4326 
Q 2131 4326 2528 3840 
Q 2938 3328 2938 2522 
Q 2938 1958 2742 1462 
Q 2547 966 2170 621 
Q 1773 262 1395 105 
Q 1018 -51 378 -141 
z
M 2317 2272 
L 2317 2522 
Q 2317 4147 1472 4147 
Q 1171 4147 1005 3930 
Q 909 3802 845 3546 
Q 781 3290 781 3034 
Q 781 2464 995 2128 
Q 1210 1792 1568 1792 
Q 1824 1792 2070 1917 
Q 2317 2042 2317 2272 
z
" transform="scale(0.015625)"/>
        <path id="STIXGeneral-Regular-35" d="M 2803 4358 
L 2573 3814 
Q 2534 3731 2400 3731 
L 1158 3731 
L 902 3187 
Q 1606 3053 1920 2896 
Q 2234 2739 2502 2368 
Q 2726 2061 2726 1555 
Q 2726 1094 2576 780 
Q 2426 467 2099 224 
Q 1664 -90 1011 -90 
Q 646 -90 422 19 
Q 198 128 198 307 
Q 198 550 486 550 
Q 717 550 960 352 
Q 1210 147 1414 147 
Q 1747 147 2012 480 
Q 2278 813 2278 1229 
Q 2278 1843 1850 2189 
Q 1293 2637 486 2637 
Q 410 2637 410 2688 
L 416 2720 
L 1114 4237 
L 2438 4237 
Q 2547 4237 2608 4269 
Q 2669 4301 2746 4403 
L 2803 4358 
z
" transform="scale(0.015625)"/>
       </defs>
       <use xlink:href="#STIXGeneral-Regular-39"/>
       <use xlink:href="#STIXGeneral-Regular-35" x="49.999985"/>
      </g>
     </g>
    </g>
    <g id="xtick_2">
     <g id="line2d_2">
      <g>
       <use xlink:href="#ma83ec27b51" x="129.024" y="307.584" style="stroke: #000000; stroke-width: 0.8"/>
      </g>
     </g>
     <g id="text_2">
      <!-- 96 -->
      <g transform="translate(124.024 321.413687) scale(0.1 -0.1)">
       <defs>
        <path id="STIXGeneral-Regular-36" d="M 2854 4378 
L 2867 4275 
Q 2112 4154 1606 3664 
Q 1101 3174 973 2451 
Q 1344 2739 1786 2739 
Q 2349 2739 2672 2380 
Q 2995 2022 2995 1402 
Q 2995 774 2669 378 
Q 2291 -90 1651 -90 
Q 870 -90 518 557 
Q 218 1107 218 1786 
Q 218 2835 915 3552 
Q 1312 3962 1731 4131 
Q 2150 4301 2854 4378 
z
M 2419 1203 
Q 2419 2445 1555 2445 
Q 1235 2445 1024 2275 
Q 813 2106 813 1702 
Q 813 954 1046 522 
Q 1280 90 1722 90 
Q 2061 90 2240 394 
Q 2419 698 2419 1203 
z
" transform="scale(0.015625)"/>
       </defs>
       <use xlink:href="#STIXGeneral-Regular-39"/>
       <use xlink:href="#STIXGeneral-Regular-36" x="49.999985"/>
      </g>
     </g>
    </g>
    <g id="xtick_3">
     <g id="line2d_3">
      <g>
       <use xlink:href="#ma83ec27b51" x="200.448" y="307.584" style="stroke: #000000; stroke-width: 0.8"/>
      </g>
     </g>
     <g id="text_3">
      <!-- 97 -->
      <g transform="translate(195.448 321.413687) scale(0.1 -0.1)">
       <defs>
        <path id="STIXGeneral-Regular-37" d="M 2874 4134 
L 1517 -51 
L 1101 -51 
L 2368 3763 
L 992 3763 
Q 717 3763 582 3667 
Q 448 3571 243 3238 
L 128 3296 
L 512 4237 
L 2874 4237 
L 2874 4134 
z
" transform="scale(0.015625)"/>
       </defs>
       <use xlink:href="#STIXGeneral-Regular-39"/>
       <use xlink:href="#STIXGeneral-Regular-37" x="49.999985"/>
      </g>
     </g>
    </g>
    <g id="xtick_4">
     <g id="line2d_4">
      <g>
       <use xlink:href="#ma83ec27b51" x="271.872" y="307.584" style="stroke: #000000; stroke-width: 0.8"/>
      </g>
     </g>
     <g id="text_4">
      <!-- 98 -->
      <g transform="translate(266.872 321.413687) scale(0.1 -0.1)">
       <defs>
        <path id="STIXGeneral-Regular-38" d="M 2848 992 
Q 2848 499 2505 204 
Q 2163 -90 1587 -90 
Q 1050 -90 704 204 
Q 358 499 358 954 
Q 358 1293 524 1533 
Q 691 1773 1190 2125 
Q 710 2522 553 2765 
Q 397 3008 397 3328 
Q 397 3782 745 4054 
Q 1094 4326 1638 4326 
Q 2106 4326 2410 4060 
Q 2714 3795 2714 3411 
Q 2714 3059 2531 2848 
Q 2349 2637 1856 2374 
Q 2432 1990 2640 1689 
Q 2848 1389 2848 992 
z
M 2272 3411 
Q 2272 3744 2086 3945 
Q 1901 4147 1574 4147 
Q 1248 4147 1059 3977 
Q 870 3808 870 3513 
Q 870 3219 1059 2979 
Q 1248 2739 1670 2490 
Q 1997 2682 2134 2896 
Q 2272 3110 2272 3411 
z
M 1734 1741 
L 1357 1997 
Q 1075 1766 960 1545 
Q 845 1325 845 1011 
Q 845 576 1065 333 
Q 1286 90 1658 90 
Q 1971 90 2166 285 
Q 2362 480 2362 794 
Q 2362 1082 2214 1299 
Q 2067 1517 1734 1741 
z
" transform="scale(0.015625)"/>
       </defs>
       <use xlink:href="#STIXGeneral-Regular-39"/>
       <use xlink:href="#STIXGeneral-Regular-38" x="49.999985"/>
      </g>
     </g>
    </g>
    <g id="xtick_5">
     <g id="line2d_5">
      <g>
       <use xlink:href="#ma83ec27b51" x="343.296" y="307.584" style="stroke: #000000; stroke-width: 0.8"/>
      </g>
     </g>
     <g id="text_5">
      <!-- 99 -->
      <g transform="translate(338.296 321.413687) scale(0.1 -0.1)">
       <use xlink:href="#STIXGeneral-Regular-39"/>
       <use xlink:href="#STIXGeneral-Regular-39" x="49.999985"/>
      </g>
     </g>
    </g>
    <g id="xtick_6">
     <g id="line2d_6">
      <g>
       <use xlink:href="#ma83ec27b51" x="414.72" y="307.584" style="stroke: #000000; stroke-width: 0.8"/>
      </g>
     </g>
     <g id="text_6">
      <!-- 100 -->
      <g transform="translate(407.22 321.413687) scale(0.1 -0.1)">
       <defs>
        <path id="STIXGeneral-Regular-31" d="M 2522 0 
L 755 0 
L 755 96 
Q 1107 115 1235 227 
Q 1363 339 1363 608 
L 1363 3482 
Q 1363 3795 1171 3795 
Q 1082 3795 883 3718 
L 710 3654 
L 710 3744 
L 1856 4326 
L 1914 4307 
L 1914 486 
Q 1914 275 2042 185 
Q 2170 96 2522 96 
L 2522 0 
z
" transform="scale(0.015625)"/>
        <path id="STIXGeneral-Regular-30" d="M 3046 2112 
Q 3046 1683 2963 1302 
Q 2880 922 2717 602 
Q 2554 282 2266 96 
Q 1978 -90 1600 -90 
Q 1210 -90 915 108 
Q 621 307 461 640 
Q 301 973 227 1350 
Q 154 1728 154 2150 
Q 154 2746 301 3222 
Q 448 3699 790 4012 
Q 1133 4326 1626 4326 
Q 2253 4326 2649 3712 
Q 3046 3098 3046 2112 
z
M 2432 2080 
Q 2432 3091 2217 3625 
Q 2003 4160 1587 4160 
Q 1190 4160 979 3622 
Q 768 3085 768 2106 
Q 768 1120 979 598 
Q 1190 77 1600 77 
Q 2003 77 2217 598 
Q 2432 1120 2432 2080 
z
" transform="scale(0.015625)"/>
       </defs>
       <use xlink:href="#STIXGeneral-Regular-31"/>
       <use xlink:href="#STIXGeneral-Regular-30" x="49.999985"/>
       <use xlink:href="#STIXGeneral-Regular-30" x="99.999969"/>
      </g>
     </g>
    </g>
    <g id="text_7">
     <!-- $t$ -->
     <g transform="translate(234.76 334.413687) scale(0.1 -0.1)">
      <defs>
       <path id="STIXGeneral-Italic-74" d="M 1894 2739 
L 1862 2534 
L 1325 2534 
L 768 435 
Q 755 384 755 346 
Q 755 243 851 243 
Q 928 243 1030 342 
Q 1133 442 1370 749 
L 1453 704 
Q 1158 256 969 93 
Q 781 -70 538 -70 
Q 243 -70 243 166 
Q 243 230 346 640 
L 845 2534 
L 365 2534 
L 358 2573 
Q 358 2688 570 2733 
Q 730 2771 992 2979 
Q 1254 3187 1421 3437 
Q 1459 3494 1510 3494 
Q 1568 3494 1568 3443 
Q 1568 3411 1562 3398 
L 1382 2739 
L 1894 2739 
z
" transform="scale(0.015625)"/>
      </defs>
      <use xlink:href="#STIXGeneral-Italic-74" transform="translate(0 0.40625)"/>
     </g>
    </g>
   </g>
   <g id="matplotlib.axis_2">
    <g id="ytick_1">
     <g id="line2d_7">
      <defs>
       <path id="mdfcb21bd30" d="M 0 0 
L -3.5 0 
" style="stroke: #000000; stroke-width: 0.8"/>
      </defs>
      <g>
       <use xlink:href="#mdfcb21bd30" x="57.6" y="305.209273" style="stroke: #000000; stroke-width: 0.8"/>
      </g>
     </g>
     <g id="text_8">
      <!-- −20 -->
      <g transform="translate(33.75 308.624117) scale(0.1 -0.1)">
       <defs>
        <path id="STIXGeneral-Regular-2212" d="M 3974 1408 
L 410 1408 
L 410 1830 
L 3974 1830 
L 3974 1408 
z
" transform="scale(0.015625)"/>
        <path id="STIXGeneral-Regular-32" d="M 3034 877 
L 2688 0 
L 186 0 
L 186 77 
L 1325 1286 
Q 1773 1754 1965 2144 
Q 2157 2534 2157 2950 
Q 2157 3379 1920 3616 
Q 1683 3853 1267 3853 
Q 922 3853 720 3673 
Q 518 3494 326 3021 
L 192 3053 
Q 301 3648 630 3987 
Q 960 4326 1523 4326 
Q 2054 4326 2380 4006 
Q 2707 3686 2707 3200 
Q 2707 2477 1888 1613 
L 832 486 
L 2330 486 
Q 2541 486 2665 569 
Q 2790 653 2944 915 
L 3034 877 
z
" transform="scale(0.015625)"/>
       </defs>
       <use xlink:href="#STIXGeneral-Regular-2212"/>
       <use xlink:href="#STIXGeneral-Regular-32" x="68.499985"/>
       <use xlink:href="#STIXGeneral-Regular-30" x="118.499969"/>
      </g>
     </g>
    </g>
    <g id="ytick_2">
     <g id="line2d_8">
      <g>
       <use xlink:href="#mdfcb21bd30" x="57.6" y="273.605089" style="stroke: #000000; stroke-width: 0.8"/>
      </g>
     </g>
     <g id="text_9">
      <!-- −15 -->
      <g transform="translate(33.75 277.019933) scale(0.1 -0.1)">
       <use xlink:href="#STIXGeneral-Regular-2212"/>
       <use xlink:href="#STIXGeneral-Regular-31" x="68.499985"/>
       <use xlink:href="#STIXGeneral-Regular-35" x="118.499969"/>
      </g>
     </g>
    </g>
    <g id="ytick_3">
     <g id="line2d_9">
      <g>
       <use xlink:href="#mdfcb21bd30" x="57.6" y="242.000905" style="stroke: #000000; stroke-width: 0.8"/>
      </g>
     </g>
     <g id="text_10">
      <!-- −10 -->
      <g transform="translate(33.75 245.415749) scale(0.1 -0.1)">
       <use xlink:href="#STIXGeneral-Regular-2212"/>
       <use xlink:href="#STIXGeneral-Regular-31" x="68.499985"/>
       <use xlink:href="#STIXGeneral-Regular-30" x="118.499969"/>
      </g>
     </g>
    </g>
    <g id="ytick_4">
     <g id="line2d_10">
      <g>
       <use xlink:href="#mdfcb21bd30" x="57.6" y="210.396722" style="stroke: #000000; stroke-width: 0.8"/>
      </g>
     </g>
     <g id="text_11">
      <!-- −5 -->
      <g transform="translate(38.75 213.811566) scale(0.1 -0.1)">
       <use xlink:href="#STIXGeneral-Regular-2212"/>
       <use xlink:href="#STIXGeneral-Regular-35" x="68.499985"/>
      </g>
     </g>
    </g>
    <g id="ytick_5">
     <g id="line2d_11">
      <g>
       <use xlink:href="#mdfcb21bd30" x="57.6" y="178.792538" style="stroke: #000000; stroke-width: 0.8"/>
      </g>
     </g>
     <g id="text_12">
      <!-- 0 -->
      <g transform="translate(45.6 182.207382) scale(0.1 -0.1)">
       <use xlink:href="#STIXGeneral-Regular-30"/>
      </g>
     </g>
    </g>
    <g id="ytick_6">
     <g id="line2d_12">
      <g>
       <use xlink:href="#mdfcb21bd30" x="57.6" y="147.188355" style="stroke: #000000; stroke-width: 0.8"/>
      </g>
     </g>
     <g id="text_13">
      <!-- 5 -->
      <g transform="translate(45.6 150.603198) scale(0.1 -0.1)">
       <use xlink:href="#STIXGeneral-Regular-35"/>
      </g>
     </g>
    </g>
    <g id="ytick_7">
     <g id="line2d_13">
      <g>
       <use xlink:href="#mdfcb21bd30" x="57.6" y="115.584171" style="stroke: #000000; stroke-width: 0.8"/>
      </g>
     </g>
     <g id="text_14">
      <!-- 10 -->
      <g transform="translate(40.6 118.999015) scale(0.1 -0.1)">
       <use xlink:href="#STIXGeneral-Regular-31"/>
       <use xlink:href="#STIXGeneral-Regular-30" x="49.999985"/>
      </g>
     </g>
    </g>
    <g id="ytick_8">
     <g id="line2d_14">
      <g>
       <use xlink:href="#mdfcb21bd30" x="57.6" y="83.979987" style="stroke: #000000; stroke-width: 0.8"/>
      </g>
     </g>
     <g id="text_15">
      <!-- 15 -->
      <g transform="translate(40.6 87.394831) scale(0.1 -0.1)">
       <use xlink:href="#STIXGeneral-Regular-31"/>
       <use xlink:href="#STIXGeneral-Regular-35" x="49.999985"/>
      </g>
     </g>
    </g>
    <g id="ytick_9">
     <g id="line2d_15">
      <g>
       <use xlink:href="#mdfcb21bd30" x="57.6" y="52.375804" style="stroke: #000000; stroke-width: 0.8"/>
      </g>
     </g>
     <g id="text_16">
      <!-- 20 -->
      <g transform="translate(40.6 55.790647) scale(0.1 -0.1)">
       <use xlink:href="#STIXGeneral-Regular-32"/>
       <use xlink:href="#STIXGeneral-Regular-30" x="49.999985"/>
      </g>
     </g>
    </g>
    <g id="text_17">
     <!-- $x(t)$ -->
     <g transform="translate(27.579687 181.478) rotate(-90) scale(0.1 -0.1)">
      <defs>
       <path id="STIXGeneral-Italic-78" d="M 1555 2272 
L 1632 1907 
Q 1971 2426 2179 2624 
Q 2387 2822 2598 2822 
Q 2714 2822 2787 2755 
Q 2861 2688 2861 2585 
Q 2861 2483 2800 2419 
Q 2739 2355 2643 2355 
Q 2586 2355 2490 2409 
Q 2394 2464 2310 2464 
Q 2125 2464 1683 1690 
Q 1683 1606 1734 1402 
L 1939 544 
Q 2003 282 2131 282 
Q 2234 282 2432 538 
Q 2451 563 2476 598 
Q 2502 634 2521 662 
Q 2541 691 2566 717 
L 2662 659 
Q 2387 230 2227 80 
Q 2067 -70 1882 -70 
Q 1728 -70 1645 26 
Q 1562 122 1504 365 
L 1318 1126 
L 755 365 
Q 557 96 432 13 
Q 307 -70 147 -70 
Q 0 -70 -86 0 
Q -173 70 -173 198 
Q -173 294 -112 361 
Q -51 429 45 429 
Q 122 429 250 358 
Q 346 301 416 301 
Q 525 301 742 614 
L 1267 1357 
L 1088 2150 
Q 1024 2432 969 2509 
Q 915 2586 794 2586 
Q 717 2586 544 2541 
L 429 2509 
L 410 2611 
L 480 2637 
Q 992 2822 1229 2822 
Q 1350 2822 1420 2707 
Q 1491 2592 1555 2272 
z
" transform="scale(0.015625)"/>
       <path id="STIXGeneral-Regular-28" d="M 1946 -1030 
L 1869 -1133 
Q 1126 -710 716 32 
Q 307 774 307 1613 
Q 307 3386 1888 4326 
L 1946 4224 
Q 1293 3667 1075 3126 
Q 858 2586 858 1632 
Q 858 685 1082 96 
Q 1306 -493 1946 -1030 
z
" transform="scale(0.015625)"/>
       <path id="STIXGeneral-Regular-29" d="M 186 4224 
L 262 4326 
Q 992 3891 1408 3148 
Q 1824 2406 1824 1581 
Q 1824 -166 243 -1133 
L 186 -1030 
Q 845 -486 1059 54 
Q 1274 595 1274 1562 
Q 1274 2534 1059 3120 
Q 845 3706 186 4224 
z
" transform="scale(0.015625)"/>
      </defs>
      <use xlink:href="#STIXGeneral-Italic-78" transform="translate(0 0.40625)"/>
      <use xlink:href="#STIXGeneral-Regular-28" transform="translate(44.399994 0.40625)"/>
      <use xlink:href="#STIXGeneral-Italic-74" transform="translate(77.699982 0.40625)"/>
      <use xlink:href="#STIXGeneral-Regular-29" transform="translate(105.499969 0.40625)"/>
     </g>
    </g>
   </g>
   <g id="line2d_16">
    <path d="M 56.88576 280.212551 
L 57.6 280.95358 
L 58.31424 280.623202 
L 59.02848 279.191971 
L 59.74272 276.682008 
L 60.45696 273.165895 
L 61.1712 268.760138 
L 62.59968 257.898155 
L 68.3136 209.894028 
L 69.74208 200.66404 
L 71.17056 192.994104 
L 72.59904 186.756332 
L 74.02752 181.748304 
L 75.456 177.742037 
L 76.88448 174.513311 
L 78.31296 171.85691 
L 79.74144 169.592637 
L 82.5984 165.644204 
L 85.45536 161.677733 
L 87.59808 158.226775 
L 89.02656 155.541999 
L 90.45504 152.45766 
L 91.88352 148.897672 
L 93.312 144.791025 
L 94.74048 140.077794 
L 96.16896 134.720162 
L 98.31168 125.496481 
L 101.16864 111.593813 
L 103.31136 101.274102 
L 104.73984 95.419244 
L 105.45408 93.048009 
L 106.16832 91.160539 
L 106.88256 89.833506 
L 107.5968 89.130611 
L 108.31104 89.097437 
L 109.02528 89.757305 
L 109.73952 91.108712 
L 110.45376 93.124786 
L 111.168 95.754845 
L 112.59648 102.557504 
L 114.02496 110.798338 
L 118.3104 136.837572 
L 119.73888 144.234685 
L 121.16736 150.582771 
L 122.59584 155.853838 
L 124.02432 160.103895 
L 125.4528 163.435479 
L 126.88128 165.970021 
L 128.30976 167.829454 
L 129.73824 169.125185 
L 131.16672 169.952365 
L 132.5952 170.387658 
L 134.02368 170.489112 
L 135.45216 170.297144 
L 136.88064 169.835946 
L 138.30912 169.114892 
L 139.7376 168.129705 
L 141.16608 166.863255 
L 142.59456 165.285966 
L 144.02304 163.355891 
L 145.45152 161.018614 
L 146.88 158.207235 
L 148.30848 154.842952 
L 149.73696 150.837014 
L 151.16544 146.095393 
L 152.59392 140.528194 
L 154.0224 134.06678 
L 155.45088 126.692332 
L 157.5936 114.121496 
L 161.1648 92.209331 
L 162.59328 85.248414 
L 163.30752 82.660785 
L 164.02176 80.838796 
L 164.736 79.888293 
L 165.45024 79.885327 
L 166.16448 80.867921 
L 166.87872 82.83117 
L 167.59296 85.726611 
L 168.3072 89.466059 
L 169.73568 98.974076 
L 171.8784 116.077584 
L 174.02112 133.315974 
L 175.4496 143.636079 
L 176.87808 152.601399 
L 178.30656 160.128817 
L 179.73504 166.290333 
L 181.16352 171.244342 
L 182.592 175.186207 
L 184.02048 178.316698 
L 185.44896 180.824142 
L 186.87744 182.876071 
L 189.02016 185.409832 
L 195.44832 192.385889 
L 196.8768 194.330716 
L 198.30528 196.575309 
L 199.73376 199.193879 
L 201.16224 202.265077 
L 202.59072 205.871969 
L 204.0192 210.099719 
L 205.44768 215.029633 
L 206.87616 220.727606 
L 208.30464 227.224418 
L 210.44736 238.363184 
L 214.7328 262.313955 
L 216.16128 268.663054 
L 216.87552 271.062123 
L 217.58976 272.80092 
L 218.304 273.789044 
L 219.01824 273.959276 
L 219.73248 273.274219 
L 220.44672 271.73061 
L 221.16096 269.360554 
L 221.8752 266.229411 
L 223.30368 258.078462 
L 224.73216 248.223046 
L 228.30336 222.376927 
L 229.73184 213.327705 
L 231.16032 205.508102 
L 232.5888 198.969384 
L 234.01728 193.642066 
L 235.44576 189.389677 
L 236.87424 186.047702 
L 238.30272 183.448781 
L 239.7312 181.437219 
L 241.15968 179.875963 
L 242.58816 178.648707 
L 244.73088 177.228109 
L 247.58784 175.741781 
L 251.87328 173.553473 
L 254.016 172.185358 
L 255.44448 171.084489 
L 256.87296 169.782849 
L 258.30144 168.23118 
L 259.72992 166.372101 
L 261.1584 164.138117 
L 262.58688 161.449806 
L 264.01536 158.214485 
L 265.44384 154.326018 
L 266.87232 149.666916 
L 268.3008 144.114798 
L 269.72928 137.556471 
L 271.15776 129.914492 
L 272.58624 121.192231 
L 274.72896 106.479764 
L 277.58592 86.737265 
L 279.0144 79.102473 
L 279.72864 76.422667 
L 280.44288 74.712272 
L 281.15712 74.094454 
L 281.87136 74.647613 
L 282.5856 76.395445 
L 283.29984 79.30279 
L 284.01408 83.27819 
L 285.44256 93.843563 
L 287.58528 113.448596 
L 289.728 133.396915 
L 291.15648 145.315691 
L 292.58496 155.628346 
L 294.01344 164.254127 
L 295.44192 171.301606 
L 296.8704 176.979272 
L 298.29888 181.534203 
L 299.72736 185.214841 
L 301.15584 188.251169 
L 302.58432 190.846317 
L 305.44128 195.386185 
L 308.29824 199.94561 
L 310.44096 203.884907 
L 311.86944 206.921186 
L 313.29792 210.372966 
L 314.7264 214.304083 
L 316.15488 218.763121 
L 317.58336 223.77391 
L 319.72608 232.274546 
L 325.44 256.669591 
L 326.86848 261.171725 
L 327.58272 262.828516 
L 328.29696 264.005185 
L 329.0112 264.650734 
L 329.72544 264.728327 
L 330.43968 264.218365 
L 331.15392 263.120448 
L 331.86816 261.453936 
L 332.5824 259.257009 
L 334.01088 253.503634 
L 335.43936 246.429153 
L 340.43904 219.929742 
L 341.86752 213.626654 
L 343.296 208.253917 
L 344.72448 203.829486 
L 346.15296 200.308088 
L 347.58144 197.609685 
L 349.00992 195.640732 
L 350.4384 194.308615 
L 351.86688 193.530574 
L 353.29536 193.238597 
L 354.72384 193.381598 
L 356.15232 193.925929 
L 357.5808 194.854968 
L 359.00928 196.168261 
L 360.43776 197.880487 
L 361.86624 200.020282 
L 363.29472 202.628788 
L 364.7232 205.757557 
L 366.15168 209.465139 
L 367.58016 213.811354 
L 369.00864 218.847769 
L 370.43712 224.602507 
L 372.57984 234.521362 
L 378.29376 263.050968 
L 379.008 265.716538 
L 379.72224 267.887378 
L 380.43648 269.4746 
L 381.15072 270.402093 
L 381.86496 270.612726 
L 382.5792 270.073603 
L 383.29344 268.77957 
L 384.00768 266.754427 
L 384.72192 264.049607 
L 386.1504 256.920854 
L 387.57888 248.177535 
L 391.86432 220.367911 
L 393.2928 212.472203 
L 394.72128 205.703158 
L 396.14976 200.083063 
L 397.57824 195.542553 
L 399.00672 191.962547 
L 400.4352 189.204583 
L 401.86368 187.13056 
L 403.29216 185.614219 
L 404.72064 184.54679 
L 406.14912 183.838843 
L 407.5776 183.419883 
L 409.00608 183.236776 
L 410.43456 183.251726 
L 411.86304 183.440241 
L 413.29152 183.789365 
L 414.00576 184.02291 
L 414.00576 184.02291 
" clip-path="url(#p97658f0c52)" style="fill: none; stroke: #0000ff; stroke-width: 0.7; stroke-linecap: square"/>
   </g>
   <g id="line2d_17">
    <path d="M 56.88576 168.378654 
L 58.31424 173.100793 
L 59.74272 176.858389 
L 61.1712 179.855131 
L 62.59968 182.278518 
L 64.02816 184.293564 
L 66.17088 186.854315 
L 71.17056 192.535325 
L 72.59904 194.466322 
L 74.02752 196.672264 
L 75.456 199.227951 
L 76.88448 202.211052 
L 78.31296 205.702422 
L 79.74144 209.784267 
L 81.16992 214.534946 
L 82.5984 220.018703 
L 84.02688 226.268028 
L 86.1696 236.993882 
L 91.16928 263.742765 
L 91.88352 266.751716 
L 92.59776 269.261991 
L 93.312 271.170778 
L 94.02624 272.387121 
L 94.74048 272.839378 
L 95.45472 272.481852 
L 96.16896 271.299624 
L 96.8832 269.310769 
L 97.59744 266.56556 
L 98.31168 263.142736 
L 99.74016 254.68346 
L 101.88288 239.757221 
L 104.0256 224.767268 
L 105.45408 215.756716 
L 106.88256 207.892812 
L 108.31104 201.265424 
L 109.73952 195.835162 
L 111.168 191.486922 
L 112.59648 188.070282 
L 114.02496 185.426641 
L 115.45344 183.405559 
L 116.88192 181.873251 
L 118.3104 180.715854 
L 119.73888 179.839463 
L 121.8816 178.890526 
L 124.02432 178.214581 
L 128.30976 177.180618 
L 131.88096 176.250348 
L 134.02368 175.525986 
L 136.1664 174.592887 
L 138.30912 173.365334 
L 139.7376 172.329855 
L 141.16608 171.07333 
L 142.59456 169.545219 
L 144.02304 167.683969 
L 145.45152 165.414813 
L 146.88 162.647543 
L 148.30848 159.274598 
L 149.73696 155.170221 
L 151.16544 150.192129 
L 152.59392 144.188294 
L 154.0224 137.013243 
L 155.45088 128.560723 
L 156.87936 118.821758 
L 159.02208 102.276254 
L 161.1648 85.362521 
L 162.59328 75.906437 
L 163.30752 72.337938 
L 164.02176 69.822413 
L 164.736 68.537675 
L 165.45024 68.611376 
L 166.16448 70.104335 
L 166.87872 73.001132 
L 167.59296 77.210197 
L 168.3072 82.573499 
L 169.73568 95.905771 
L 174.73536 147.415156 
L 176.16384 159.057924 
L 177.59232 168.743578 
L 179.0208 176.625542 
L 180.44928 182.966228 
L 181.87776 188.064085 
L 183.30624 192.211621 
L 184.73472 195.674385 
L 186.87744 200.07899 
L 192.59136 211.098218 
L 194.73408 216.021756 
L 196.8768 221.708141 
L 199.01952 228.190033 
L 201.87648 237.753944 
L 204.73344 247.248084 
L 206.16192 251.324087 
L 207.5904 254.513717 
L 208.30464 255.672476 
L 209.01888 256.491929 
L 209.73312 256.943274 
L 210.44736 257.006028 
L 211.1616 256.669463 
L 211.87584 255.933538 
L 212.59008 254.809198 
L 213.30432 253.318008 
L 214.7328 249.367863 
L 216.16128 244.4175 
L 219.01824 233.105522 
L 221.16096 224.810205 
L 222.58944 219.862061 
L 224.01792 215.551509 
L 225.4464 211.94554 
L 226.87488 209.059047 
L 228.30336 206.872711 
L 229.73184 205.34832 
L 230.44608 204.820233 
L 231.16032 204.440604 
L 231.87456 204.204043 
L 232.5888 204.105592 
L 233.30304 204.14084 
L 234.01728 204.305993 
L 234.73152 204.597922 
L 236.16 205.553038 
L 237.58848 206.994769 
L 239.01696 208.921571 
L 240.44544 211.33954 
L 241.87392 214.258763 
L 243.3024 217.687893 
L 244.73088 221.626452 
L 246.8736 228.436749 
L 249.01632 236.114666 
L 252.58752 249.256369 
L 254.016 253.766161 
L 255.44448 257.263527 
L 256.15872 258.507097 
L 256.87296 259.355507 
L 257.5872 259.774752 
L 258.30144 259.741498 
L 259.01568 259.244871 
L 259.72992 258.287513 
L 260.44416 256.885773 
L 261.1584 255.068996 
L 262.58688 250.362667 
L 264.01536 244.589187 
L 269.72928 219.800606 
L 271.15776 214.793811 
L 272.58624 210.568182 
L 274.01472 207.139352 
L 275.4432 204.479578 
L 276.87168 202.537188 
L 278.30016 201.251459 
L 279.0144 200.836038 
L 279.72864 200.56304 
L 280.44288 200.426352 
L 281.15712 200.420619 
L 281.87136 200.541306 
L 282.5856 200.784744 
L 284.01408 201.629566 
L 285.44256 202.943132 
L 286.87104 204.726592 
L 288.29952 206.992481 
L 289.728 209.76195 
L 291.15648 213.0606 
L 292.58496 216.912287 
L 294.01344 221.330069 
L 295.44192 226.303361 
L 297.58464 234.675787 
L 302.58432 255.080757 
L 304.0128 259.498151 
L 304.72704 261.168428 
L 305.44128 262.400636 
L 306.15552 263.14536 
L 306.86976 263.365291 
L 307.584 263.038136 
L 308.29824 262.158645 
L 309.01248 260.739458 
L 309.72672 258.810664 
L 310.44096 256.418087 
L 311.86944 250.48619 
L 314.01216 239.806453 
L 316.86912 225.160399 
L 318.2976 218.594876 
L 319.72608 212.840917 
L 321.15456 207.982877 
L 322.58304 204.023936 
L 324.01152 200.915818 
L 325.44 198.583222 
L 326.86848 196.94185 
L 328.29696 195.910544 
L 329.0112 195.601073 
L 329.72544 195.418739 
L 330.43968 195.357037 
L 331.86816 195.57469 
L 333.29664 196.222849 
L 334.72512 197.286866 
L 336.1536 198.767854 
L 337.58208 200.681526 
L 339.01056 203.056623 
L 340.43904 205.932744 
L 341.86752 209.357047 
L 343.296 213.379047 
L 344.72448 218.042319 
L 346.15296 223.371616 
L 348.29568 232.568847 
L 351.15264 246.410485 
L 353.29536 256.621355 
L 354.72384 262.361615 
L 355.43808 264.663346 
L 356.15232 266.474696 
L 356.86656 267.720912 
L 357.5808 268.340759 
L 358.29504 268.29151 
L 359.00928 267.552885 
L 359.72352 266.129346 
L 360.43776 264.050397 
L 361.152 261.3688 
L 362.58048 254.501866 
L 364.00896 246.249077 
L 368.2944 220.38887 
L 369.72288 213.080105 
L 371.15136 206.818528 
L 372.57984 201.627355 
L 374.00832 197.448462 
L 375.4368 194.179062 
L 376.86528 191.698636 
L 378.29376 189.886811 
L 379.72224 188.634036 
L 381.15072 187.847102 
L 382.5792 187.45127 
L 384.00768 187.390352 
L 385.43616 187.625746 
L 386.86464 188.135056 
L 388.29312 188.910728 
L 389.7216 189.958941 
L 391.15008 191.298849 
L 392.57856 192.962198 
L 394.00704 194.993234 
L 395.43552 197.448737 
L 396.864 200.397837 
L 398.29248 203.921075 
L 399.72096 208.107768 
L 401.14944 213.050219 
L 402.57792 218.832505 
L 404.0064 225.510707 
L 405.43488 233.08087 
L 407.5776 245.821142 
L 410.43456 263.317562 
L 411.86304 270.633637 
L 412.57728 273.498244 
L 413.29152 275.660725 
L 414.00576 277.007023 
L 414.00576 277.007023 
" clip-path="url(#p97658f0c52)" style="fill: none; stroke: #ff0000; stroke-width: 0.7; stroke-linecap: square"/>
   </g>
   <g id="patch_3">
    <path d="M 57.6 307.584 
L 57.6 41.472 
" style="fill: none; stroke: #000000; stroke-width: 0.8; stroke-linejoin: miter; stroke-linecap: square"/>
   </g>
   <g id="patch_4">
    <path d="M 414.72 307.584 
L 414.72 41.472 
" style="fill: none; stroke: #000000; stroke-width: 0.8; stroke-linejoin: miter; stroke-linecap: square"/>
   </g>
   <g id="patch_5">
    <path d="M 57.6 307.584 
L 414.72 307.584 
" style="fill: none; stroke: #000000; stroke-width: 0.8; stroke-linejoin: miter; stroke-linecap: square"/>
   </g>
   <g id="patch_6">
    <path d="M 57.6 41.472 
L 414.72 41.472 
" style="fill: none; stroke: #000000; stroke-width: 0.8; stroke-linejoin: miter; stroke-linecap: square"/>
   </g>
   <g id="text_18">
    <!-- $x(t), t \in [95, 100]$ -->
    <g transform="translate(196.56 35.472) scale(0.12 -0.12)">
     <defs>
      <path id="STIXGeneral-Regular-2c" d="M 531 -902 
L 467 -781 
Q 998 -422 998 -96 
Q 998 -13 909 -13 
Q 883 -13 822 -25 
Q 762 -38 723 -38 
Q 352 -38 352 288 
Q 352 454 457 553 
Q 563 653 736 653 
Q 954 653 1101 496 
Q 1248 339 1248 96 
Q 1248 -198 1053 -473 
Q 858 -749 531 -902 
z
" transform="scale(0.015625)"/>
      <path id="STIXGeneral-Regular-2208" d="M 4000 -173 
L 2138 -173 
Q 1382 -173 883 355 
Q 384 883 384 1612 
Q 384 2342 877 2870 
Q 1370 3398 2118 3398 
L 4000 3398 
L 4000 2976 
L 2144 2976 
Q 1664 2976 1286 2633 
Q 909 2291 826 1824 
L 4000 1824 
L 4000 1402 
L 819 1402 
Q 902 934 1280 592 
Q 1658 250 2138 250 
L 4000 250 
L 4000 -173 
z
" transform="scale(0.015625)"/>
      <path id="STIXGeneral-Regular-5b" d="M 1914 -998 
L 563 -998 
L 563 4237 
L 1914 4237 
L 1914 4077 
L 1382 4077 
Q 1216 4077 1133 4006 
Q 1050 3936 1050 3770 
L 1050 -493 
Q 1050 -838 1382 -838 
L 1914 -838 
L 1914 -998 
z
" transform="scale(0.015625)"/>
      <path id="STIXGeneral-Regular-5d" d="M 1568 -998 
L 218 -998 
L 218 -838 
L 781 -838 
Q 947 -838 1014 -768 
Q 1082 -698 1082 -544 
L 1082 3731 
Q 1082 4077 755 4077 
L 218 4077 
L 218 4237 
L 1568 4237 
L 1568 -998 
z
" transform="scale(0.015625)"/>
     </defs>
     <use xlink:href="#STIXGeneral-Italic-78" transform="translate(0 0.203125)"/>
     <use xlink:href="#STIXGeneral-Regular-28" transform="translate(44.399994 0.203125)"/>
     <use xlink:href="#STIXGeneral-Italic-74" transform="translate(77.699982 0.203125)"/>
     <use xlink:href="#STIXGeneral-Regular-29" transform="translate(105.499969 0.203125)"/>
     <use xlink:href="#STIXGeneral-Regular-2c" transform="translate(138.799957 0.203125)"/>
     <use xlink:href="#STIXGeneral-Italic-74" transform="translate(178.239938 0.203125)"/>
     <use xlink:href="#STIXGeneral-Regular-2208" transform="translate(220.479922 0.203125)"/>
     <use xlink:href="#STIXGeneral-Regular-5b" transform="translate(303.419904 0.203125)"/>
     <use xlink:href="#STIXGeneral-Regular-39" transform="translate(336.719891 0.203125)"/>
     <use xlink:href="#STIXGeneral-Regular-35" transform="translate(386.719876 0.203125)"/>
     <use xlink:href="#STIXGeneral-Regular-2c" transform="translate(436.719861 0.203125)"/>
     <use xlink:href="#STIXGeneral-Regular-31" transform="translate(476.159842 0.203125)"/>
     <use xlink:href="#STIXGeneral-Regular-30" transform="translate(526.159827 0.203125)"/>
     <use xlink:href="#STIXGeneral-Regular-30" transform="translate(576.159811 0.203125)"/>
     <use xlink:href="#STIXGeneral-Regular-5d" transform="translate(626.159796 0.203125)"/>
    </g>
   </g>
   <g id="legend_1">
    <g id="patch_7">
     <path d="M 324.349688 77.831375 
L 407.72 77.831375 
Q 409.72 77.831375 409.72 75.831375 
L 409.72 48.472 
Q 409.72 46.472 407.72 46.472 
L 324.349688 46.472 
Q 322.349688 46.472 322.349688 48.472 
L 322.349688 75.831375 
Q 322.349688 77.831375 324.349688 77.831375 
z
" style="fill: #ffffff; opacity: 0.8; stroke: #cccccc; stroke-linejoin: miter"/>
    </g>
    <g id="line2d_18">
     <path d="M 326.349688 53.972 
L 336.349688 53.972 
L 346.349688 53.972 
" style="fill: none; stroke: #0000ff; stroke-width: 0.7; stroke-linecap: square"/>
    </g>
    <g id="text_19">
     <!-- Trajectory A -->
     <g transform="translate(354.349688 57.472) scale(0.1 -0.1)">
      <defs>
       <path id="STIXGeneral-Regular-54" d="M 3795 3149 
L 3642 3149 
Q 3539 3674 3353 3821 
Q 3168 3968 2656 3968 
L 2278 3968 
L 2278 710 
Q 2278 346 2387 243 
Q 2496 141 2893 122 
L 2893 0 
L 1024 0 
L 1024 122 
Q 1427 147 1526 256 
Q 1626 365 1626 787 
L 1626 3968 
L 1242 3968 
Q 723 3968 540 3817 
Q 358 3667 262 3149 
L 109 3149 
L 154 4237 
L 3750 4237 
L 3795 3149 
z
" transform="scale(0.015625)"/>
       <path id="STIXGeneral-Regular-72" d="M 1024 2931 
L 1024 2342 
Q 1267 2688 1430 2816 
Q 1594 2944 1792 2944 
Q 1958 2944 2051 2854 
Q 2144 2765 2144 2605 
Q 2144 2470 2077 2393 
Q 2010 2317 1894 2317 
Q 1773 2317 1638 2445 
Q 1536 2541 1472 2541 
Q 1338 2541 1181 2355 
Q 1024 2170 1024 2016 
L 1024 576 
Q 1024 301 1133 205 
Q 1242 109 1568 96 
L 1568 0 
L 32 0 
L 32 96 
Q 339 154 412 224 
Q 486 294 486 538 
L 486 2138 
Q 486 2349 438 2435 
Q 390 2522 269 2522 
Q 166 2522 45 2496 
L 45 2598 
Q 448 2726 992 2944 
L 1024 2931 
z
" transform="scale(0.015625)"/>
       <path id="STIXGeneral-Regular-61" d="M 2829 422 
L 2829 243 
Q 2586 -64 2253 -64 
Q 1888 -64 1843 403 
L 1837 403 
Q 1427 -64 909 -64 
Q 608 -64 422 112 
Q 237 288 237 602 
Q 237 1050 685 1350 
Q 992 1555 1837 1869 
L 1837 2214 
Q 1837 2502 1699 2646 
Q 1562 2790 1338 2790 
Q 1146 2790 1018 2697 
Q 890 2605 890 2477 
Q 890 2419 909 2348 
Q 928 2278 928 2208 
Q 928 2112 841 2029 
Q 755 1946 634 1946 
Q 525 1946 441 2029 
Q 358 2112 358 2240 
Q 358 2547 685 2752 
Q 986 2944 1421 2944 
Q 1939 2944 2176 2656 
Q 2291 2522 2323 2384 
Q 2355 2246 2355 1946 
L 2355 723 
Q 2355 301 2554 301 
Q 2682 301 2829 422 
z
M 1837 813 
L 1837 1715 
Q 1248 1510 1018 1293 
Q 800 1094 800 800 
Q 800 557 921 432 
Q 1043 307 1242 307 
Q 1453 307 1613 410 
Q 1747 506 1792 589 
Q 1837 672 1837 813 
z
" transform="scale(0.015625)"/>
       <path id="STIXGeneral-Regular-6a" d="M 1242 4045 
Q 1242 3904 1146 3811 
Q 1050 3718 909 3718 
Q 774 3718 681 3811 
Q 589 3904 589 4045 
Q 589 4179 685 4275 
Q 781 4371 915 4371 
Q 1050 4371 1146 4275 
Q 1242 4179 1242 4045 
z
M 1235 2925 
L 1235 0 
Q 1235 -685 956 -1040 
Q 678 -1395 147 -1395 
Q -115 -1395 -281 -1296 
Q -448 -1197 -448 -1043 
Q -448 -941 -371 -867 
Q -294 -794 -186 -794 
Q -38 -794 122 -998 
Q 269 -1178 390 -1178 
Q 538 -1178 608 -1062 
Q 698 -902 698 -288 
L 698 2138 
Q 698 2522 493 2522 
Q 339 2522 237 2502 
L 205 2496 
L 205 2598 
Q 717 2758 1203 2944 
L 1235 2925 
z
" transform="scale(0.015625)"/>
       <path id="STIXGeneral-Regular-65" d="M 2611 1050 
L 2714 1005 
Q 2330 -64 1376 -64 
Q 813 -64 486 329 
Q 160 723 160 1389 
Q 160 2074 525 2509 
Q 890 2944 1485 2944 
Q 2061 2944 2374 2502 
Q 2560 2246 2592 1773 
L 621 1773 
Q 646 1370 700 1158 
Q 755 947 915 730 
Q 1184 378 1626 378 
Q 1939 378 2153 531 
Q 2368 685 2611 1050 
z
M 634 1978 
L 1939 1978 
Q 1882 2381 1750 2547 
Q 1619 2714 1312 2714 
Q 1043 2714 864 2525 
Q 685 2336 634 1978 
z
" transform="scale(0.015625)"/>
       <path id="STIXGeneral-Regular-63" d="M 2547 998 
L 2637 941 
Q 2362 403 2112 205 
Q 1786 -64 1376 -64 
Q 845 -64 502 336 
Q 160 736 160 1357 
Q 160 2170 698 2618 
Q 1094 2944 1562 2944 
Q 1965 2944 2256 2749 
Q 2547 2554 2547 2285 
Q 2547 2176 2457 2096 
Q 2368 2016 2246 2016 
Q 2022 2016 1939 2310 
L 1901 2451 
Q 1850 2630 1773 2694 
Q 1696 2758 1523 2758 
Q 1133 2758 893 2451 
Q 653 2144 653 1645 
Q 653 1094 928 745 
Q 1203 397 1645 397 
Q 1920 397 2118 528 
Q 2317 659 2547 998 
z
" transform="scale(0.015625)"/>
       <path id="STIXGeneral-Regular-74" d="M 1702 493 
L 1786 422 
Q 1478 -64 1011 -64 
Q 448 -64 448 749 
L 448 2675 
L 109 2675 
Q 83 2694 83 2720 
Q 83 2771 192 2842 
Q 435 2982 813 3526 
Q 826 3546 874 3606 
Q 922 3667 941 3706 
Q 986 3706 986 3622 
L 986 2880 
L 1632 2880 
L 1632 2675 
L 986 2675 
L 986 845 
Q 986 538 1062 403 
Q 1139 269 1318 269 
Q 1510 269 1702 493 
z
" transform="scale(0.015625)"/>
       <path id="STIXGeneral-Regular-6f" d="M 3008 1478 
Q 3008 806 2608 371 
Q 2208 -64 1568 -64 
Q 979 -64 582 368 
Q 186 800 186 1459 
Q 186 2125 582 2534 
Q 979 2944 1626 2944 
Q 2221 2944 2614 2537 
Q 3008 2131 3008 1478 
z
M 2432 1306 
Q 2432 2035 2112 2445 
Q 1856 2765 1504 2765 
Q 1171 2765 966 2493 
Q 762 2221 762 1747 
Q 762 928 1101 435 
Q 1318 115 1677 115 
Q 2029 115 2230 432 
Q 2432 749 2432 1306 
z
" transform="scale(0.015625)"/>
       <path id="STIXGeneral-Regular-79" d="M 3040 2880 
L 3040 2784 
Q 2925 2771 2854 2700 
Q 2784 2630 2720 2458 
L 1760 -160 
Q 1510 -838 1257 -1116 
Q 1005 -1395 640 -1395 
Q 435 -1395 313 -1289 
Q 192 -1184 192 -1024 
Q 192 -902 272 -816 
Q 352 -730 467 -730 
Q 653 -730 800 -813 
Q 883 -858 966 -858 
Q 1101 -858 1286 -576 
Q 1376 -448 1459 -211 
Q 1542 26 1542 115 
Q 1542 198 1274 762 
L 429 2566 
Q 346 2752 90 2790 
L 90 2880 
L 1402 2880 
L 1402 2784 
Q 1197 2778 1117 2739 
Q 1037 2701 1037 2611 
Q 1037 2541 1120 2349 
L 1837 749 
L 2458 2515 
Q 2483 2573 2483 2630 
Q 2483 2784 2189 2784 
L 2189 2880 
L 3040 2880 
z
" transform="scale(0.015625)"/>
       <path id="STIXGeneral-Regular-20" transform="scale(0.015625)"/>
       <path id="STIXGeneral-Regular-41" d="M 4525 0 
L 2893 0 
L 2893 122 
Q 3149 122 3245 179 
Q 3334 224 3334 333 
Q 3334 499 3213 781 
L 2950 1382 
L 1274 1382 
L 979 653 
Q 922 506 922 384 
Q 922 237 1027 179 
Q 1133 122 1370 122 
L 1370 0 
L 96 0 
L 96 122 
Q 365 147 486 316 
Q 608 486 902 1190 
L 2221 4314 
L 2349 4314 
L 3923 710 
Q 4064 378 4176 262 
Q 4288 147 4525 122 
L 4525 0 
z
M 2861 1645 
L 2118 3405 
L 1382 1645 
L 2861 1645 
z
" transform="scale(0.015625)"/>
      </defs>
      <use xlink:href="#STIXGeneral-Regular-54"/>
      <use xlink:href="#STIXGeneral-Regular-72" x="61.099991"/>
      <use xlink:href="#STIXGeneral-Regular-61" x="94.399979"/>
      <use xlink:href="#STIXGeneral-Regular-6a" x="138.799973"/>
      <use xlink:href="#STIXGeneral-Regular-65" x="166.59996"/>
      <use xlink:href="#STIXGeneral-Regular-63" x="210.999954"/>
      <use xlink:href="#STIXGeneral-Regular-74" x="255.399948"/>
      <use xlink:href="#STIXGeneral-Regular-6f" x="283.199936"/>
      <use xlink:href="#STIXGeneral-Regular-72" x="333.199921"/>
      <use xlink:href="#STIXGeneral-Regular-79" x="366.499908"/>
      <use xlink:href="#STIXGeneral-Regular-20" x="416.499893"/>
      <use xlink:href="#STIXGeneral-Regular-41" x="441.499878"/>
     </g>
    </g>
    <g id="line2d_19">
     <path d="M 326.349688 68.151688 
L 336.349688 68.151688 
L 346.349688 68.151688 
" style="fill: none; stroke: #ff0000; stroke-width: 0.7; stroke-linecap: square"/>
    </g>
    <g id="text_20">
     <!-- Trajectory B -->
     <g transform="translate(354.349688 71.651688) scale(0.1 -0.1)">
      <defs>
       <path id="STIXGeneral-Regular-42" d="M 2701 2234 
L 2701 2227 
Q 3181 2150 3482 1875 
Q 3795 1594 3795 1139 
Q 3795 608 3379 304 
Q 2963 0 2266 0 
L 109 0 
L 109 122 
Q 486 134 604 246 
Q 723 358 723 723 
L 723 3520 
Q 723 3891 614 3990 
Q 506 4090 109 4115 
L 109 4237 
L 1901 4237 
Q 2726 4237 3152 3958 
Q 3578 3680 3578 3168 
Q 3578 2733 3315 2502 
Q 3130 2342 2701 2234 
z
M 1376 2342 
L 1965 2342 
Q 2925 2342 2925 3136 
Q 2925 3546 2640 3773 
Q 2355 4000 1792 4000 
L 1530 4000 
Q 1376 4000 1376 3795 
L 1376 2342 
z
M 1376 2086 
L 1376 525 
Q 1376 365 1462 301 
Q 1549 237 1773 237 
Q 2208 237 2413 285 
Q 2618 333 2816 512 
Q 3059 723 3059 1146 
Q 3059 1632 2758 1830 
Q 2688 1882 2617 1917 
Q 2547 1952 2492 1974 
Q 2438 1997 2348 2016 
Q 2259 2035 2211 2044 
Q 2163 2054 2041 2060 
Q 1920 2067 1862 2070 
Q 1805 2074 1635 2080 
Q 1466 2086 1376 2086 
z
" transform="scale(0.015625)"/>
      </defs>
      <use xlink:href="#STIXGeneral-Regular-54"/>
      <use xlink:href="#STIXGeneral-Regular-72" x="61.099991"/>
      <use xlink:href="#STIXGeneral-Regular-61" x="94.399979"/>
      <use xlink:href="#STIXGeneral-Regular-6a" x="138.799973"/>
      <use xlink:href="#STIXGeneral-Regular-65" x="166.59996"/>
      <use xlink:href="#STIXGeneral-Regular-63" x="210.999954"/>
      <use xlink:href="#STIXGeneral-Regular-74" x="255.399948"/>
      <use xlink:href="#STIXGeneral-Regular-6f" x="283.199936"/>
      <use xlink:href="#STIXGeneral-Regular-72" x="333.199921"/>
      <use xlink:href="#STIXGeneral-Regular-79" x="366.499908"/>
      <use xlink:href="#STIXGeneral-Regular-20" x="416.499893"/>
      <use xlink:href="#STIXGeneral-Regular-42" x="441.499878"/>
     </g>
    </g>
   </g>
  </g>
 </g>
 <defs>
  <clipPath id="p97658f0c52">
   <rect x="57.6" y="41.472" width="357.12" height="266.112"/>
  </clipPath>
 </defs>
</svg>
