<?xml version="1.0" encoding="utf-8" standalone="no"?>
<!DOCTYPE svg PUBLIC "-//W3C//DTD SVG 1.1//EN"
  "http://www.w3.org/Graphics/SVG/1.1/DTD/svg11.dtd">
<svg xmlns:xlink="http://www.w3.org/1999/xlink" width="864pt" height="432pt" viewBox="0 0 864 432" xmlns="http://www.w3.org/2000/svg" version="1.1">
 <metadata>
  <rdf:RDF xmlns:dc="http://purl.org/dc/elements/1.1/" xmlns:cc="http://creativecommons.org/ns#" xmlns:rdf="http://www.w3.org/1999/02/22-rdf-syntax-ns#">
   <cc:Work>
    <dc:type rdf:resource="http://purl.org/dc/dcmitype/StillImage"/>
    <dc:date>2024-05-13T16:57:08.500919</dc:date>
    <dc:format>image/svg+xml</dc:format>
    <dc:creator>
     <cc:Agent>
      <dc:title>Matplotlib v3.8.0, https://matplotlib.org/</dc:title>
     </cc:Agent>
    </dc:creator>
   </cc:Work>
  </rdf:RDF>
 </metadata>
 <defs>
  <style type="text/css">*{stroke-linejoin: round; stroke-linecap: butt}</style>
 </defs>
 <g id="figure_1">
  <g id="patch_1">
   <path d="M 0 432 
L 864 432 
L 864 0 
L 0 0 
z
" style="fill: #ffffff"/>
  </g>
  <g id="axes_1">
   <g id="patch_2">
    <path d="M 108 384.48 
L 412.363636 384.48 
L 412.363636 51.84 
L 108 51.84 
z
" style="fill: #ffffff"/>
   </g>
   <g id="matplotlib.axis_1">
    <g id="xtick_1">
     <g id="line2d_1">
      <defs>
       <path id="m4198bbc410" d="M 0 0 
L 0 3.5 
" style="stroke: #000000; stroke-width: 0.8"/>
      </defs>
      <g>
       <use xlink:href="#m4198bbc410" x="121.834711" y="384.48" style="stroke: #000000; stroke-width: 0.8"/>
      </g>
     </g>
     <g id="text_1">
      <!-- −1.00 -->
      <g transform="translate(109.659711 398.309687) scale(0.1 -0.1)">
       <defs>
        <path id="STIXGeneral-Regular-2212" d="M 3974 1408 
L 410 1408 
L 410 1830 
L 3974 1830 
L 3974 1408 
z
" transform="scale(0.015625)"/>
        <path id="STIXGeneral-Regular-31" d="M 2522 0 
L 755 0 
L 755 96 
Q 1107 115 1235 227 
Q 1363 339 1363 608 
L 1363 3482 
Q 1363 3795 1171 3795 
Q 1082 3795 883 3718 
L 710 3654 
L 710 3744 
L 1856 4326 
L 1914 4307 
L 1914 486 
Q 1914 275 2042 185 
Q 2170 96 2522 96 
L 2522 0 
z
" transform="scale(0.015625)"/>
        <path id="STIXGeneral-Regular-2e" d="M 1158 275 
Q 1158 134 1052 32 
Q 947 -70 800 -70 
Q 653 -70 550 32 
Q 448 134 448 281 
Q 448 429 553 534 
Q 659 640 806 640 
Q 947 640 1052 531 
Q 1158 422 1158 275 
z
" transform="scale(0.015625)"/>
        <path id="STIXGeneral-Regular-30" d="M 3046 2112 
Q 3046 1683 2963 1302 
Q 2880 922 2717 602 
Q 2554 282 2266 96 
Q 1978 -90 1600 -90 
Q 1210 -90 915 108 
Q 621 307 461 640 
Q 301 973 227 1350 
Q 154 1728 154 2150 
Q 154 2746 301 3222 
Q 448 3699 790 4012 
Q 1133 4326 1626 4326 
Q 2253 4326 2649 3712 
Q 3046 3098 3046 2112 
z
M 2432 2080 
Q 2432 3091 2217 3625 
Q 2003 4160 1587 4160 
Q 1190 4160 979 3622 
Q 768 3085 768 2106 
Q 768 1120 979 598 
Q 1190 77 1600 77 
Q 2003 77 2217 598 
Q 2432 1120 2432 2080 
z
" transform="scale(0.015625)"/>
       </defs>
       <use xlink:href="#STIXGeneral-Regular-2212"/>
       <use xlink:href="#STIXGeneral-Regular-31" x="68.499985"/>
       <use xlink:href="#STIXGeneral-Regular-2e" x="118.499969"/>
       <use xlink:href="#STIXGeneral-Regular-30" x="143.499954"/>
       <use xlink:href="#STIXGeneral-Regular-30" x="193.499939"/>
      </g>
     </g>
    </g>
    <g id="xtick_2">
     <g id="line2d_2">
      <g>
       <use xlink:href="#m4198bbc410" x="156.421488" y="384.48" style="stroke: #000000; stroke-width: 0.8"/>
      </g>
     </g>
     <g id="text_2">
      <!-- −0.75 -->
      <g transform="translate(144.246488 398.309687) scale(0.1 -0.1)">
       <defs>
        <path id="STIXGeneral-Regular-37" d="M 2874 4134 
L 1517 -51 
L 1101 -51 
L 2368 3763 
L 992 3763 
Q 717 3763 582 3667 
Q 448 3571 243 3238 
L 128 3296 
L 512 4237 
L 2874 4237 
L 2874 4134 
z
" transform="scale(0.015625)"/>
        <path id="STIXGeneral-Regular-35" d="M 2803 4358 
L 2573 3814 
Q 2534 3731 2400 3731 
L 1158 3731 
L 902 3187 
Q 1606 3053 1920 2896 
Q 2234 2739 2502 2368 
Q 2726 2061 2726 1555 
Q 2726 1094 2576 780 
Q 2426 467 2099 224 
Q 1664 -90 1011 -90 
Q 646 -90 422 19 
Q 198 128 198 307 
Q 198 550 486 550 
Q 717 550 960 352 
Q 1210 147 1414 147 
Q 1747 147 2012 480 
Q 2278 813 2278 1229 
Q 2278 1843 1850 2189 
Q 1293 2637 486 2637 
Q 410 2637 410 2688 
L 416 2720 
L 1114 4237 
L 2438 4237 
Q 2547 4237 2608 4269 
Q 2669 4301 2746 4403 
L 2803 4358 
z
" transform="scale(0.015625)"/>
       </defs>
       <use xlink:href="#STIXGeneral-Regular-2212"/>
       <use xlink:href="#STIXGeneral-Regular-30" x="68.499985"/>
       <use xlink:href="#STIXGeneral-Regular-2e" x="118.499969"/>
       <use xlink:href="#STIXGeneral-Regular-37" x="143.499954"/>
       <use xlink:href="#STIXGeneral-Regular-35" x="193.499939"/>
      </g>
     </g>
    </g>
    <g id="xtick_3">
     <g id="line2d_3">
      <g>
       <use xlink:href="#m4198bbc410" x="191.008264" y="384.48" style="stroke: #000000; stroke-width: 0.8"/>
      </g>
     </g>
     <g id="text_3">
      <!-- −0.50 -->
      <g transform="translate(178.833264 398.309687) scale(0.1 -0.1)">
       <use xlink:href="#STIXGeneral-Regular-2212"/>
       <use xlink:href="#STIXGeneral-Regular-30" x="68.499985"/>
       <use xlink:href="#STIXGeneral-Regular-2e" x="118.499969"/>
       <use xlink:href="#STIXGeneral-Regular-35" x="143.499954"/>
       <use xlink:href="#STIXGeneral-Regular-30" x="193.499939"/>
      </g>
     </g>
    </g>
    <g id="xtick_4">
     <g id="line2d_4">
      <g>
       <use xlink:href="#m4198bbc410" x="225.595041" y="384.48" style="stroke: #000000; stroke-width: 0.8"/>
      </g>
     </g>
     <g id="text_4">
      <!-- −0.25 -->
      <g transform="translate(213.420041 398.309687) scale(0.1 -0.1)">
       <defs>
        <path id="STIXGeneral-Regular-32" d="M 3034 877 
L 2688 0 
L 186 0 
L 186 77 
L 1325 1286 
Q 1773 1754 1965 2144 
Q 2157 2534 2157 2950 
Q 2157 3379 1920 3616 
Q 1683 3853 1267 3853 
Q 922 3853 720 3673 
Q 518 3494 326 3021 
L 192 3053 
Q 301 3648 630 3987 
Q 960 4326 1523 4326 
Q 2054 4326 2380 4006 
Q 2707 3686 2707 3200 
Q 2707 2477 1888 1613 
L 832 486 
L 2330 486 
Q 2541 486 2665 569 
Q 2790 653 2944 915 
L 3034 877 
z
" transform="scale(0.015625)"/>
       </defs>
       <use xlink:href="#STIXGeneral-Regular-2212"/>
       <use xlink:href="#STIXGeneral-Regular-30" x="68.499985"/>
       <use xlink:href="#STIXGeneral-Regular-2e" x="118.499969"/>
       <use xlink:href="#STIXGeneral-Regular-32" x="143.499954"/>
       <use xlink:href="#STIXGeneral-Regular-35" x="193.499939"/>
      </g>
     </g>
    </g>
    <g id="xtick_5">
     <g id="line2d_5">
      <g>
       <use xlink:href="#m4198bbc410" x="260.181818" y="384.48" style="stroke: #000000; stroke-width: 0.8"/>
      </g>
     </g>
     <g id="text_5">
      <!-- 0.00 -->
      <g transform="translate(251.431818 398.309687) scale(0.1 -0.1)">
       <use xlink:href="#STIXGeneral-Regular-30"/>
       <use xlink:href="#STIXGeneral-Regular-2e" x="49.999985"/>
       <use xlink:href="#STIXGeneral-Regular-30" x="74.999969"/>
       <use xlink:href="#STIXGeneral-Regular-30" x="124.999954"/>
      </g>
     </g>
    </g>
    <g id="xtick_6">
     <g id="line2d_6">
      <g>
       <use xlink:href="#m4198bbc410" x="294.768595" y="384.48" style="stroke: #000000; stroke-width: 0.8"/>
      </g>
     </g>
     <g id="text_6">
      <!-- 0.25 -->
      <g transform="translate(286.018595 398.309687) scale(0.1 -0.1)">
       <use xlink:href="#STIXGeneral-Regular-30"/>
       <use xlink:href="#STIXGeneral-Regular-2e" x="49.999985"/>
       <use xlink:href="#STIXGeneral-Regular-32" x="74.999969"/>
       <use xlink:href="#STIXGeneral-Regular-35" x="124.999954"/>
      </g>
     </g>
    </g>
    <g id="xtick_7">
     <g id="line2d_7">
      <g>
       <use xlink:href="#m4198bbc410" x="329.355372" y="384.48" style="stroke: #000000; stroke-width: 0.8"/>
      </g>
     </g>
     <g id="text_7">
      <!-- 0.50 -->
      <g transform="translate(320.605372 398.309687) scale(0.1 -0.1)">
       <use xlink:href="#STIXGeneral-Regular-30"/>
       <use xlink:href="#STIXGeneral-Regular-2e" x="49.999985"/>
       <use xlink:href="#STIXGeneral-Regular-35" x="74.999969"/>
       <use xlink:href="#STIXGeneral-Regular-30" x="124.999954"/>
      </g>
     </g>
    </g>
    <g id="xtick_8">
     <g id="line2d_8">
      <g>
       <use xlink:href="#m4198bbc410" x="363.942149" y="384.48" style="stroke: #000000; stroke-width: 0.8"/>
      </g>
     </g>
     <g id="text_8">
      <!-- 0.75 -->
      <g transform="translate(355.192149 398.309687) scale(0.1 -0.1)">
       <use xlink:href="#STIXGeneral-Regular-30"/>
       <use xlink:href="#STIXGeneral-Regular-2e" x="49.999985"/>
       <use xlink:href="#STIXGeneral-Regular-37" x="74.999969"/>
       <use xlink:href="#STIXGeneral-Regular-35" x="124.999954"/>
      </g>
     </g>
    </g>
    <g id="xtick_9">
     <g id="line2d_9">
      <g>
       <use xlink:href="#m4198bbc410" x="398.528926" y="384.48" style="stroke: #000000; stroke-width: 0.8"/>
      </g>
     </g>
     <g id="text_9">
      <!-- 1.00 -->
      <g transform="translate(389.778926 398.309687) scale(0.1 -0.1)">
       <use xlink:href="#STIXGeneral-Regular-31"/>
       <use xlink:href="#STIXGeneral-Regular-2e" x="49.999985"/>
       <use xlink:href="#STIXGeneral-Regular-30" x="74.999969"/>
       <use xlink:href="#STIXGeneral-Regular-30" x="124.999954"/>
      </g>
     </g>
    </g>
   </g>
   <g id="matplotlib.axis_2">
    <g id="ytick_1">
     <g id="line2d_10">
      <defs>
       <path id="mdc51bb96e4" d="M 0 0 
L -3.5 0 
" style="stroke: #000000; stroke-width: 0.8"/>
      </defs>
      <g>
       <use xlink:href="#mdc51bb96e4" x="108" y="334.282967" style="stroke: #000000; stroke-width: 0.8"/>
      </g>
     </g>
     <g id="text_10">
      <!-- 0.0 -->
      <g transform="translate(88.5 337.69781) scale(0.1 -0.1)">
       <use xlink:href="#STIXGeneral-Regular-30"/>
       <use xlink:href="#STIXGeneral-Regular-2e" x="49.999985"/>
       <use xlink:href="#STIXGeneral-Regular-30" x="74.999969"/>
      </g>
     </g>
    </g>
    <g id="ytick_2">
     <g id="line2d_11">
      <g>
       <use xlink:href="#mdc51bb96e4" x="108" y="266.051286" style="stroke: #000000; stroke-width: 0.8"/>
      </g>
     </g>
     <g id="text_11">
      <!-- 0.5 -->
      <g transform="translate(88.5 269.46613) scale(0.1 -0.1)">
       <use xlink:href="#STIXGeneral-Regular-30"/>
       <use xlink:href="#STIXGeneral-Regular-2e" x="49.999985"/>
       <use xlink:href="#STIXGeneral-Regular-35" x="74.999969"/>
      </g>
     </g>
    </g>
    <g id="ytick_3">
     <g id="line2d_12">
      <g>
       <use xlink:href="#mdc51bb96e4" x="108" y="197.819606" style="stroke: #000000; stroke-width: 0.8"/>
      </g>
     </g>
     <g id="text_12">
      <!-- 1.0 -->
      <g transform="translate(88.5 201.234449) scale(0.1 -0.1)">
       <use xlink:href="#STIXGeneral-Regular-31"/>
       <use xlink:href="#STIXGeneral-Regular-2e" x="49.999985"/>
       <use xlink:href="#STIXGeneral-Regular-30" x="74.999969"/>
      </g>
     </g>
    </g>
    <g id="ytick_4">
     <g id="line2d_13">
      <g>
       <use xlink:href="#mdc51bb96e4" x="108" y="129.587925" style="stroke: #000000; stroke-width: 0.8"/>
      </g>
     </g>
     <g id="text_13">
      <!-- 1.5 -->
      <g transform="translate(88.5 133.002769) scale(0.1 -0.1)">
       <use xlink:href="#STIXGeneral-Regular-31"/>
       <use xlink:href="#STIXGeneral-Regular-2e" x="49.999985"/>
       <use xlink:href="#STIXGeneral-Regular-35" x="74.999969"/>
      </g>
     </g>
    </g>
    <g id="ytick_5">
     <g id="line2d_14">
      <g>
       <use xlink:href="#mdc51bb96e4" x="108" y="61.356244" style="stroke: #000000; stroke-width: 0.8"/>
      </g>
     </g>
     <g id="text_14">
      <!-- 2.0 -->
      <g transform="translate(88.5 64.771088) scale(0.1 -0.1)">
       <use xlink:href="#STIXGeneral-Regular-32"/>
       <use xlink:href="#STIXGeneral-Regular-2e" x="49.999985"/>
       <use xlink:href="#STIXGeneral-Regular-30" x="74.999969"/>
      </g>
     </g>
    </g>
   </g>
   <g id="line2d_15">
    <path d="M 121.834711 329.034376 
L 133.623687 328.057698 
L 143.332256 327.037464 
L 151.653887 325.954149 
L 159.282048 324.738614 
L 166.21674 323.394424 
L 171.764494 322.110854 
L 177.312248 320.5955 
L 182.166532 319.035418 
L 186.327347 317.48641 
L 190.488163 315.70221 
L 193.955509 314.002369 
L 197.422855 312.074291 
L 200.890201 309.878935 
L 204.357547 307.369682 
L 207.131424 305.099269 
L 209.9053 302.559429 
L 212.679177 299.712304 
L 215.453054 296.515022 
L 218.226931 292.919623 
L 221.000808 288.873429 
L 223.774685 284.320215 
L 226.548561 279.202664 
L 229.322438 273.466835 
L 232.096315 267.069613 
L 234.870192 259.990313 
L 237.644069 252.247579 
L 241.111415 241.767216 
L 250.126515 213.739296 
L 252.206922 208.286287 
L 253.593861 205.140601 
L 254.980799 202.476677 
L 256.367738 200.364214 
L 257.754676 198.861629 
L 258.448145 198.353246 
L 259.141614 198.012198 
L 259.835084 197.841032 
L 260.528553 197.841032 
L 261.222022 198.012198 
L 261.915491 198.353246 
L 262.60896 198.861629 
L 263.30243 199.533587 
L 264.689368 201.347549 
L 266.076306 203.743847 
L 267.463245 206.657906 
L 268.850183 210.015961 
L 270.930591 215.712984 
L 273.704468 224.129622 
L 282.719568 252.247579 
L 285.493444 259.990313 
L 288.267321 267.069613 
L 291.041198 273.466835 
L 293.815075 279.202664 
L 296.588952 284.320215 
L 299.362829 288.873429 
L 302.136705 292.919623 
L 304.910582 296.515022 
L 307.684459 299.712304 
L 310.458336 302.559429 
L 313.232213 305.099269 
L 316.00609 307.369682 
L 319.473436 309.878935 
L 322.940782 312.074291 
L 326.408128 314.002369 
L 329.875474 315.70221 
L 334.036289 317.48641 
L 338.197104 319.035418 
L 343.051389 320.5955 
L 348.599142 322.110854 
L 354.146896 323.394424 
L 360.388119 324.615446 
L 367.322811 325.75069 
L 375.644442 326.871863 
L 384.659541 327.857752 
L 395.06158 328.772095 
L 398.528926 329.034376 
L 398.528926 329.034376 
" clip-path="url(#p6e915c32c0)" style="fill: none; stroke: #1f77b4; stroke-width: 1.5; stroke-linecap: square"/>
   </g>
   <g id="line2d_16">
    <path d="M 121.834711 329.034376 
L 123.915118 331.629887 
L 125.995526 333.900412 
L 128.075934 335.859033 
L 130.156341 337.518633 
L 132.236749 338.891894 
L 134.317157 339.991296 
L 136.397564 340.829116 
L 138.477972 341.417432 
L 140.558379 341.76812 
L 142.638787 341.892855 
L 144.719195 341.80311 
L 146.799602 341.510158 
L 148.88001 341.025069 
L 150.960418 340.358712 
L 153.734294 339.206674 
L 156.508171 337.776058 
L 159.282048 336.090957 
L 162.055925 334.17483 
L 165.523271 331.489499 
L 168.990617 328.521982 
L 173.151432 324.646972 
L 178.005717 319.780041 
L 183.55347 313.888266 
L 192.56857 303.922119 
L 203.664078 291.715082 
L 209.9053 285.197706 
L 214.759585 280.420039 
L 219.613869 275.962232 
L 223.774685 272.436056 
L 227.9355 269.213593 
L 231.402846 266.779475 
L 234.870192 264.588445 
L 238.337538 262.652616 
L 241.804884 260.982551 
L 245.27223 259.587257 
L 248.739576 258.474191 
L 251.513453 257.790959 
L 254.28733 257.294465 
L 257.061207 256.986379 
L 259.835084 256.867736 
L 262.60896 256.938932 
L 265.382837 257.199729 
L 268.156714 257.649252 
L 270.930591 258.285991 
L 274.397937 259.341855 
L 277.865283 260.68125 
L 281.332629 262.297031 
L 284.799975 264.180502 
L 288.267321 266.321412 
L 291.734667 268.707956 
L 295.895483 271.87713 
L 300.056298 275.354669 
L 304.217113 279.111318 
L 309.071398 283.803337 
L 314.619151 289.503011 
L 321.553843 296.993404 
L 342.35792 319.780041 
L 347.212204 324.646972 
L 351.373019 328.521982 
L 354.840365 331.489499 
L 358.307711 334.17483 
L 361.081588 336.090957 
L 363.855465 337.776058 
L 366.629342 339.206674 
L 369.403219 340.358712 
L 371.483626 341.025069 
L 373.564034 341.510158 
L 375.644442 341.80311 
L 377.724849 341.892855 
L 379.805257 341.76812 
L 381.885665 341.417432 
L 383.966072 340.829116 
L 386.04648 339.991296 
L 388.126887 338.891894 
L 390.207295 337.518633 
L 392.287703 335.859033 
L 394.36811 333.900412 
L 396.448518 331.629887 
L 398.528926 329.034376 
L 398.528926 329.034376 
" clip-path="url(#p6e915c32c0)" style="fill: none; stroke-dasharray: 5.55,2.4; stroke-dashoffset: 0; stroke: #ff7f0e; stroke-width: 1.5"/>
   </g>
   <g id="line2d_17">
    <path d="M 121.834711 329.034376 
L 123.221649 234.998938 
L 124.608588 166.100894 
L 125.302057 139.77975 
L 125.995526 118.246289 
L 126.688995 101.063499 
L 127.382464 87.821726 
L 128.075934 78.137419 
L 128.769403 71.651907 
L 129.462872 68.030229 
L 130.156341 66.96 
L 130.84981 68.150318 
L 131.54328 71.33071 
L 132.236749 76.250115 
L 132.930218 82.675904 
L 134.317157 99.202665 
L 135.704095 119.383653 
L 137.784503 153.745454 
L 143.332256 247.982366 
L 145.412664 278.675034 
L 146.799602 296.816906 
L 148.186541 312.918715 
L 149.573479 326.904257 
L 150.960418 338.757261 
L 152.347356 348.511138 
L 153.734294 356.23977 
L 155.121233 362.049285 
L 155.814702 364.274533 
L 156.508171 366.070723 
L 157.20164 367.457065 
L 157.89511 368.453559 
L 158.588579 369.080835 
L 159.282048 369.36 
L 159.975517 369.312503 
L 160.668987 368.960003 
L 161.362456 368.324247 
L 162.055925 367.426963 
L 162.749394 366.289756 
L 164.136333 363.380819 
L 165.523271 359.764449 
L 167.603679 353.360697 
L 170.377555 343.757872 
L 175.23184 326.759886 
L 177.312248 320.222905 
L 179.392655 314.454886 
L 180.779594 311.105769 
L 182.166532 308.184295 
L 183.55347 305.704052 
L 184.940409 303.668211 
L 186.327347 302.070392 
L 187.714286 300.895578 
L 189.101224 300.12106 
L 190.488163 299.717413 
L 191.875101 299.649465 
L 193.262039 299.87727 
L 194.648978 300.357072 
L 196.035916 301.04223 
L 198.116324 302.348335 
L 205.051016 307.105247 
L 206.437954 307.777171 
L 207.824893 308.257111 
L 209.211831 308.509257 
L 210.59877 308.501815 
L 211.985708 308.207314 
L 213.372646 307.602849 
L 214.759585 306.670256 
L 216.146523 305.396234 
L 217.533462 303.772398 
L 218.9204 301.795281 
L 220.307339 299.466284 
L 221.694277 296.791565 
L 223.774685 292.156016 
L 225.855092 286.822517 
L 227.9355 280.866129 
L 230.709377 272.118633 
L 234.176723 260.265673 
L 243.191823 228.855091 
L 245.965699 220.290076 
L 248.046107 214.54503 
L 250.126515 209.508123 
L 251.513453 206.593215 
L 252.900391 204.063051 
L 254.28733 201.93988 
L 255.674268 200.24239 
L 257.061207 198.985533 
L 258.448145 198.180388 
L 259.835084 197.834053 
L 260.528553 197.834053 
L 261.222022 197.949583 
L 262.60896 198.525959 
L 263.995899 199.558098 
L 265.382837 201.036901 
L 266.769776 202.949338 
L 268.156714 205.278568 
L 269.543653 208.0041 
L 270.930591 211.101981 
L 273.010999 216.386676 
L 275.091406 222.343307 
L 277.865283 231.127338 
L 281.332629 243.028479 
L 289.65426 272.118633 
L 292.428136 280.866129 
L 294.508544 286.822517 
L 296.588952 292.156016 
L 298.669359 296.791565 
L 300.056298 299.466284 
L 301.443236 301.795281 
L 302.830175 303.772398 
L 304.217113 305.396234 
L 305.604051 306.670256 
L 306.99099 307.602849 
L 308.377928 308.207314 
L 309.764867 308.501815 
L 311.151805 308.509257 
L 312.538744 308.257111 
L 313.925682 307.777171 
L 315.31262 307.105247 
L 317.393028 305.824597 
L 325.021189 300.676984 
L 326.408128 300.08853 
L 327.795066 299.729055 
L 329.182005 299.643873 
L 330.568943 299.874953 
L 331.955881 300.459975 
L 333.34282 301.43136 
L 334.729758 302.815296 
L 336.116697 304.630767 
L 337.503635 306.888588 
L 338.890574 309.590474 
L 340.277512 312.728151 
L 341.66445 316.28252 
L 343.744858 322.324934 
L 345.825266 329.077249 
L 349.292612 341.276456 
L 352.759958 353.360697 
L 354.840365 359.764449 
L 356.227304 363.380819 
L 357.614242 366.289756 
L 358.307711 367.426963 
L 359.001181 368.324247 
L 359.69465 368.960003 
L 360.388119 369.312503 
L 361.081588 369.36 
L 361.775057 369.080835 
L 362.468527 368.453559 
L 363.161996 367.457065 
L 363.855465 366.070723 
L 364.548934 364.274533 
L 365.242404 362.049285 
L 365.935873 359.376731 
L 367.322811 352.622642 
L 368.70975 343.89282 
L 370.096688 333.09629 
L 371.483626 320.178316 
L 372.870565 305.129113 
L 374.257503 287.993571 
L 376.337911 258.640615 
L 378.418319 225.572957 
L 381.885665 165.764138 
L 384.659541 119.383653 
L 386.04648 99.202665 
L 387.433418 82.675904 
L 388.126887 76.250115 
L 388.820357 71.33071 
L 389.513826 68.150318 
L 390.207295 66.96 
L 390.900764 68.030229 
L 391.594234 71.651907 
L 392.287703 78.137419 
L 392.981172 87.821726 
L 393.674641 101.063499 
L 394.36811 118.246289 
L 395.06158 139.77975 
L 395.755049 166.100894 
L 396.448518 197.675395 
L 397.141987 234.998938 
L 398.528926 329.034376 
L 398.528926 329.034376 
" clip-path="url(#p6e915c32c0)" style="fill: none; stroke-dasharray: 1.5,2.475; stroke-dashoffset: 0; stroke: #2ca02c; stroke-width: 1.5"/>
   </g>
   <g id="patch_3">
    <path d="M 108 384.48 
L 108 51.84 
" style="fill: none; stroke: #000000; stroke-width: 0.8; stroke-linejoin: miter; stroke-linecap: square"/>
   </g>
   <g id="patch_4">
    <path d="M 412.363636 384.48 
L 412.363636 51.84 
" style="fill: none; stroke: #000000; stroke-width: 0.8; stroke-linejoin: miter; stroke-linecap: square"/>
   </g>
   <g id="patch_5">
    <path d="M 108 384.48 
L 412.363636 384.48 
" style="fill: none; stroke: #000000; stroke-width: 0.8; stroke-linejoin: miter; stroke-linecap: square"/>
   </g>
   <g id="patch_6">
    <path d="M 108 51.84 
L 412.363636 51.84 
" style="fill: none; stroke: #000000; stroke-width: 0.8; stroke-linejoin: miter; stroke-linecap: square"/>
   </g>
   <g id="text_15">
    <!-- Figure 7.7: Equally Spaced Points -->
    <g transform="translate(178.341818 45.84) scale(0.12 -0.12)">
     <defs>
      <path id="STIXGeneral-Regular-46" d="M 3494 3322 
L 3334 3322 
Q 3264 3757 3094 3875 
Q 2925 3994 2349 3994 
L 1504 3994 
Q 1370 3994 1328 3946 
Q 1286 3898 1286 3744 
L 1286 2355 
L 2195 2355 
Q 2598 2355 2736 2470 
Q 2874 2586 2918 2963 
L 3066 2963 
L 3066 1472 
L 2918 1472 
Q 2880 1862 2745 1977 
Q 2611 2093 2195 2093 
L 1286 2093 
L 1286 717 
Q 1286 352 1392 246 
Q 1498 141 1869 122 
L 1869 0 
L 70 0 
L 70 122 
Q 435 147 534 259 
Q 634 371 634 787 
L 634 3526 
Q 634 3878 538 3984 
Q 442 4090 77 4115 
L 77 4237 
L 3462 4237 
L 3494 3322 
z
" transform="scale(0.015625)"/>
      <path id="STIXGeneral-Regular-69" d="M 1152 4045 
Q 1152 3904 1056 3811 
Q 960 3718 819 3718 
Q 685 3718 592 3811 
Q 499 3904 499 4045 
Q 499 4179 595 4275 
Q 691 4371 826 4371 
Q 966 4371 1059 4275 
Q 1152 4179 1152 4045 
z
M 1619 0 
L 102 0 
L 102 96 
Q 435 115 521 211 
Q 608 307 608 666 
L 608 2118 
Q 608 2342 563 2432 
Q 518 2522 397 2522 
Q 243 2522 128 2490 
L 128 2592 
L 1120 2944 
L 1146 2918 
L 1146 672 
Q 1146 314 1226 218 
Q 1306 122 1619 96 
L 1619 0 
z
" transform="scale(0.015625)"/>
      <path id="STIXGeneral-Regular-67" d="M 3008 2483 
L 2477 2483 
Q 2598 2208 2598 1946 
Q 2598 1453 2265 1203 
Q 1933 954 1600 954 
Q 1530 954 1357 973 
L 1235 986 
Q 1107 947 979 812 
Q 851 678 851 582 
Q 851 435 1350 410 
L 2176 371 
Q 2528 358 2739 172 
Q 2950 -13 2950 -314 
Q 2950 -685 2566 -986 
Q 2035 -1395 1286 -1395 
Q 826 -1395 502 -1212 
Q 179 -1030 179 -774 
Q 179 -595 320 -419 
Q 461 -243 806 6 
Q 602 102 534 172 
Q 467 243 467 346 
Q 467 531 762 787 
Q 909 915 1037 1043 
Q 717 1203 579 1401 
Q 442 1600 442 1901 
Q 442 2336 752 2640 
Q 1062 2944 1510 2944 
Q 1766 2944 2022 2848 
L 2163 2797 
Q 2349 2733 2515 2733 
L 3008 2733 
L 3008 2483 
z
M 973 2163 
L 973 2144 
Q 973 1683 1155 1398 
Q 1338 1114 1632 1114 
Q 1850 1114 1978 1270 
Q 2106 1427 2106 1690 
Q 2106 2112 1914 2464 
Q 1754 2765 1446 2765 
Q 1222 2765 1097 2605 
Q 973 2445 973 2163 
z
M 2771 -410 
Q 2771 -230 2595 -163 
Q 2419 -96 1978 -96 
Q 1344 -96 941 -13 
Q 749 -243 688 -348 
Q 627 -454 627 -563 
Q 627 -774 880 -902 
Q 1133 -1030 1555 -1030 
Q 2099 -1030 2435 -860 
Q 2771 -691 2771 -410 
z
" transform="scale(0.015625)"/>
      <path id="STIXGeneral-Regular-75" d="M 3072 320 
L 3072 230 
Q 2573 96 2195 -58 
L 2163 -38 
L 2163 486 
L 2150 486 
Q 1747 -64 1235 -64 
Q 870 -64 662 160 
Q 454 384 454 755 
L 454 2362 
Q 454 2598 371 2688 
Q 288 2778 58 2790 
L 58 2880 
L 992 2880 
L 992 813 
Q 992 595 1123 451 
Q 1254 307 1446 307 
Q 1760 307 1984 506 
Q 2067 582 2099 649 
Q 2131 717 2131 877 
L 2131 2355 
Q 2131 2605 2041 2678 
Q 1952 2752 1658 2771 
L 1658 2880 
L 2669 2880 
L 2669 685 
Q 2669 461 2742 390 
Q 2816 320 3034 320 
L 3072 320 
z
" transform="scale(0.015625)"/>
      <path id="STIXGeneral-Regular-72" d="M 1024 2931 
L 1024 2342 
Q 1267 2688 1430 2816 
Q 1594 2944 1792 2944 
Q 1958 2944 2051 2854 
Q 2144 2765 2144 2605 
Q 2144 2470 2077 2393 
Q 2010 2317 1894 2317 
Q 1773 2317 1638 2445 
Q 1536 2541 1472 2541 
Q 1338 2541 1181 2355 
Q 1024 2170 1024 2016 
L 1024 576 
Q 1024 301 1133 205 
Q 1242 109 1568 96 
L 1568 0 
L 32 0 
L 32 96 
Q 339 154 412 224 
Q 486 294 486 538 
L 486 2138 
Q 486 2349 438 2435 
Q 390 2522 269 2522 
Q 166 2522 45 2496 
L 45 2598 
Q 448 2726 992 2944 
L 1024 2931 
z
" transform="scale(0.015625)"/>
      <path id="STIXGeneral-Regular-65" d="M 2611 1050 
L 2714 1005 
Q 2330 -64 1376 -64 
Q 813 -64 486 329 
Q 160 723 160 1389 
Q 160 2074 525 2509 
Q 890 2944 1485 2944 
Q 2061 2944 2374 2502 
Q 2560 2246 2592 1773 
L 621 1773 
Q 646 1370 700 1158 
Q 755 947 915 730 
Q 1184 378 1626 378 
Q 1939 378 2153 531 
Q 2368 685 2611 1050 
z
M 634 1978 
L 1939 1978 
Q 1882 2381 1750 2547 
Q 1619 2714 1312 2714 
Q 1043 2714 864 2525 
Q 685 2336 634 1978 
z
" transform="scale(0.015625)"/>
      <path id="STIXGeneral-Regular-20" transform="scale(0.015625)"/>
      <path id="STIXGeneral-Regular-3a" d="M 1123 2832 
Q 1229 2726 1229 2579 
Q 1229 2432 1126 2329 
Q 1024 2227 877 2227 
Q 730 2227 624 2332 
Q 518 2438 518 2579 
Q 518 2733 620 2835 
Q 723 2938 877 2938 
Q 1018 2938 1123 2832 
z
M 1229 282 
Q 1229 141 1126 35 
Q 1024 -70 877 -70 
Q 730 -70 624 35 
Q 518 141 518 282 
Q 518 435 620 537 
Q 723 640 877 640 
Q 1018 640 1123 534 
Q 1229 429 1229 282 
z
" transform="scale(0.015625)"/>
      <path id="STIXGeneral-Regular-45" d="M 3821 1082 
L 3526 0 
L 77 0 
L 77 122 
Q 442 147 538 252 
Q 634 358 634 730 
L 634 3520 
Q 634 3878 534 3987 
Q 435 4096 77 4115 
L 77 4237 
L 3469 4237 
L 3494 3322 
L 3334 3322 
Q 3264 3750 3085 3872 
Q 2906 3994 2349 3994 
L 1510 3994 
Q 1370 3994 1328 3952 
Q 1286 3910 1286 3763 
L 1286 2355 
L 2253 2355 
Q 2656 2355 2787 2470 
Q 2918 2586 2976 2970 
L 3123 2970 
L 3123 1472 
L 2976 1472 
Q 2918 1875 2790 1984 
Q 2662 2093 2253 2093 
L 1286 2093 
L 1286 538 
Q 1286 346 1420 291 
Q 1555 237 1933 237 
L 2163 237 
Q 2848 237 3136 403 
Q 3424 570 3642 1082 
L 3821 1082 
z
" transform="scale(0.015625)"/>
      <path id="STIXGeneral-Regular-71" d="M 3123 -1389 
L 1613 -1389 
L 1613 -1280 
Q 1952 -1254 2067 -1158 
Q 2182 -1062 2182 -794 
L 2182 410 
Q 1747 -64 1178 -64 
Q 730 -64 442 320 
Q 154 704 154 1312 
Q 154 2003 560 2473 
Q 966 2944 1562 2944 
Q 1920 2944 2304 2720 
L 2650 2925 
L 2720 2925 
L 2720 -902 
Q 2720 -1107 2797 -1180 
Q 2874 -1254 3123 -1280 
L 3123 -1389 
z
M 2182 813 
L 2182 2131 
Q 2182 2758 1587 2758 
Q 1178 2758 941 2432 
Q 704 2106 704 1542 
Q 704 1210 803 925 
Q 902 640 1062 499 
Q 1254 326 1542 326 
Q 1882 326 2106 531 
Q 2182 602 2182 813 
z
" transform="scale(0.015625)"/>
      <path id="STIXGeneral-Regular-61" d="M 2829 422 
L 2829 243 
Q 2586 -64 2253 -64 
Q 1888 -64 1843 403 
L 1837 403 
Q 1427 -64 909 -64 
Q 608 -64 422 112 
Q 237 288 237 602 
Q 237 1050 685 1350 
Q 992 1555 1837 1869 
L 1837 2214 
Q 1837 2502 1699 2646 
Q 1562 2790 1338 2790 
Q 1146 2790 1018 2697 
Q 890 2605 890 2477 
Q 890 2419 909 2348 
Q 928 2278 928 2208 
Q 928 2112 841 2029 
Q 755 1946 634 1946 
Q 525 1946 441 2029 
Q 358 2112 358 2240 
Q 358 2547 685 2752 
Q 986 2944 1421 2944 
Q 1939 2944 2176 2656 
Q 2291 2522 2323 2384 
Q 2355 2246 2355 1946 
L 2355 723 
Q 2355 301 2554 301 
Q 2682 301 2829 422 
z
M 1837 813 
L 1837 1715 
Q 1248 1510 1018 1293 
Q 800 1094 800 800 
Q 800 557 921 432 
Q 1043 307 1242 307 
Q 1453 307 1613 410 
Q 1747 506 1792 589 
Q 1837 672 1837 813 
z
" transform="scale(0.015625)"/>
      <path id="STIXGeneral-Regular-6c" d="M 1645 0 
L 134 0 
L 134 96 
Q 435 122 531 221 
Q 627 320 627 589 
L 627 3590 
Q 627 3821 569 3910 
Q 512 4000 358 4000 
Q 224 4000 122 3987 
L 122 4090 
Q 730 4237 1133 4371 
L 1165 4346 
L 1165 557 
Q 1165 288 1254 201 
Q 1344 115 1645 96 
L 1645 0 
z
" transform="scale(0.015625)"/>
      <path id="STIXGeneral-Regular-79" d="M 3040 2880 
L 3040 2784 
Q 2925 2771 2854 2700 
Q 2784 2630 2720 2458 
L 1760 -160 
Q 1510 -838 1257 -1116 
Q 1005 -1395 640 -1395 
Q 435 -1395 313 -1289 
Q 192 -1184 192 -1024 
Q 192 -902 272 -816 
Q 352 -730 467 -730 
Q 653 -730 800 -813 
Q 883 -858 966 -858 
Q 1101 -858 1286 -576 
Q 1376 -448 1459 -211 
Q 1542 26 1542 115 
Q 1542 198 1274 762 
L 429 2566 
Q 346 2752 90 2790 
L 90 2880 
L 1402 2880 
L 1402 2784 
Q 1197 2778 1117 2739 
Q 1037 2701 1037 2611 
Q 1037 2541 1120 2349 
L 1837 749 
L 2458 2515 
Q 2483 2573 2483 2630 
Q 2483 2784 2189 2784 
L 2189 2880 
L 3040 2880 
z
" transform="scale(0.015625)"/>
      <path id="STIXGeneral-Regular-53" d="M 3002 2963 
L 2842 2963 
Q 2733 3360 2579 3565 
Q 2189 4064 1651 4064 
Q 1357 4064 1181 3894 
Q 1005 3725 1005 3456 
Q 1005 3328 1069 3206 
Q 1133 3085 1206 2998 
Q 1280 2912 1465 2784 
Q 1651 2656 1766 2589 
Q 1882 2522 2150 2362 
Q 2669 2061 2905 1763 
Q 3142 1466 3142 1107 
Q 3142 576 2771 243 
Q 2400 -90 1837 -90 
Q 1421 -90 1082 58 
Q 915 128 781 128 
Q 704 128 653 70 
Q 602 13 602 -83 
L 461 -83 
L 275 1274 
L 416 1274 
Q 845 141 1734 141 
Q 2074 141 2285 342 
Q 2496 544 2496 858 
Q 2496 1158 2310 1363 
Q 2003 1696 1235 2106 
Q 454 2522 454 3206 
Q 454 3718 768 4022 
Q 1082 4326 1568 4326 
Q 1907 4326 2240 4186 
Q 2413 4109 2522 4109 
Q 2688 4109 2726 4326 
L 2861 4326 
L 3002 2963 
z
" transform="scale(0.015625)"/>
      <path id="STIXGeneral-Regular-70" d="M 1018 2931 
L 1018 2438 
Q 1421 2944 1939 2944 
Q 2406 2944 2707 2560 
Q 3008 2176 3008 1581 
Q 3008 883 2621 409 
Q 2234 -64 1664 -64 
Q 1466 -64 1328 -6 
Q 1190 51 1018 211 
L 1018 -794 
Q 1018 -1094 1120 -1180 
Q 1222 -1267 1581 -1274 
L 1581 -1389 
L 32 -1389 
L 32 -1280 
Q 314 -1254 397 -1171 
Q 480 -1088 480 -838 
L 480 2157 
Q 480 2381 429 2451 
Q 378 2522 218 2522 
Q 115 2522 58 2515 
L 58 2618 
Q 506 2752 979 2944 
L 1018 2931 
z
M 1018 2138 
L 1018 563 
Q 1018 422 1238 281 
Q 1459 141 1683 141 
Q 2029 141 2243 467 
Q 2458 794 2458 1325 
Q 2458 1888 2243 2224 
Q 2029 2560 1670 2560 
Q 1446 2560 1232 2419 
Q 1018 2278 1018 2138 
z
" transform="scale(0.015625)"/>
      <path id="STIXGeneral-Regular-63" d="M 2547 998 
L 2637 941 
Q 2362 403 2112 205 
Q 1786 -64 1376 -64 
Q 845 -64 502 336 
Q 160 736 160 1357 
Q 160 2170 698 2618 
Q 1094 2944 1562 2944 
Q 1965 2944 2256 2749 
Q 2547 2554 2547 2285 
Q 2547 2176 2457 2096 
Q 2368 2016 2246 2016 
Q 2022 2016 1939 2310 
L 1901 2451 
Q 1850 2630 1773 2694 
Q 1696 2758 1523 2758 
Q 1133 2758 893 2451 
Q 653 2144 653 1645 
Q 653 1094 928 745 
Q 1203 397 1645 397 
Q 1920 397 2118 528 
Q 2317 659 2547 998 
z
" transform="scale(0.015625)"/>
      <path id="STIXGeneral-Regular-64" d="M 3142 269 
L 2202 -64 
L 2176 -45 
L 2176 365 
Q 1869 -64 1357 -64 
Q 826 -64 499 317 
Q 173 698 173 1312 
Q 173 1990 563 2467 
Q 954 2944 1504 2944 
Q 1850 2944 2176 2669 
L 2176 3667 
Q 2176 3866 2118 3930 
Q 2061 3994 1882 3994 
Q 1792 3994 1741 3987 
L 1741 4090 
Q 2323 4243 2682 4371 
L 2714 4358 
L 2714 730 
Q 2714 506 2768 435 
Q 2822 365 2995 365 
Q 3034 365 3142 371 
L 3142 269 
z
M 2176 653 
L 2176 2125 
Q 2176 2381 1981 2573 
Q 1786 2765 1523 2765 
Q 1158 2765 940 2438 
Q 723 2112 723 1568 
Q 723 979 963 624 
Q 1203 269 1606 269 
Q 1907 269 2080 474 
Q 2176 582 2176 653 
z
" transform="scale(0.015625)"/>
      <path id="STIXGeneral-Regular-50" d="M 102 4237 
L 1760 4237 
Q 2669 4237 3149 3834 
Q 3469 3565 3469 3072 
Q 3469 2560 3104 2234 
Q 2835 1990 2553 1916 
Q 2272 1843 1734 1843 
Q 1549 1843 1293 1862 
L 1293 717 
Q 1293 352 1398 246 
Q 1504 141 1894 122 
L 1894 0 
L 102 0 
L 102 122 
Q 474 147 557 256 
Q 640 365 640 781 
L 640 3526 
Q 640 3885 547 3987 
Q 454 4090 102 4115 
L 102 4237 
z
M 1293 3770 
L 1293 2118 
Q 1510 2099 1683 2099 
Q 2202 2099 2486 2352 
Q 2771 2605 2771 3040 
Q 2771 3558 2476 3779 
Q 2182 4000 1517 4000 
Q 1382 4000 1337 3952 
Q 1293 3904 1293 3770 
z
" transform="scale(0.015625)"/>
      <path id="STIXGeneral-Regular-6f" d="M 3008 1478 
Q 3008 806 2608 371 
Q 2208 -64 1568 -64 
Q 979 -64 582 368 
Q 186 800 186 1459 
Q 186 2125 582 2534 
Q 979 2944 1626 2944 
Q 2221 2944 2614 2537 
Q 3008 2131 3008 1478 
z
M 2432 1306 
Q 2432 2035 2112 2445 
Q 1856 2765 1504 2765 
Q 1171 2765 966 2493 
Q 762 2221 762 1747 
Q 762 928 1101 435 
Q 1318 115 1677 115 
Q 2029 115 2230 432 
Q 2432 749 2432 1306 
z
" transform="scale(0.015625)"/>
      <path id="STIXGeneral-Regular-6e" d="M 3104 0 
L 1773 0 
L 1779 96 
Q 2016 115 2096 233 
Q 2176 352 2176 672 
L 2176 1946 
Q 2176 2592 1709 2592 
Q 1549 2592 1408 2515 
Q 1267 2438 1050 2227 
L 1050 461 
Q 1050 269 1136 192 
Q 1222 115 1466 96 
L 1466 0 
L 115 0 
L 115 96 
Q 358 115 435 214 
Q 512 314 512 602 
L 512 2157 
Q 512 2394 467 2483 
Q 422 2573 288 2573 
Q 160 2573 102 2547 
L 102 2656 
Q 550 2784 979 2944 
L 1030 2925 
L 1030 2426 
L 1037 2426 
Q 1491 2944 1958 2944 
Q 2323 2944 2518 2688 
Q 2714 2432 2714 1958 
L 2714 544 
Q 2714 288 2790 205 
Q 2867 122 3104 96 
L 3104 0 
z
" transform="scale(0.015625)"/>
      <path id="STIXGeneral-Regular-74" d="M 1702 493 
L 1786 422 
Q 1478 -64 1011 -64 
Q 448 -64 448 749 
L 448 2675 
L 109 2675 
Q 83 2694 83 2720 
Q 83 2771 192 2842 
Q 435 2982 813 3526 
Q 826 3546 874 3606 
Q 922 3667 941 3706 
Q 986 3706 986 3622 
L 986 2880 
L 1632 2880 
L 1632 2675 
L 986 2675 
L 986 845 
Q 986 538 1062 403 
Q 1139 269 1318 269 
Q 1510 269 1702 493 
z
" transform="scale(0.015625)"/>
      <path id="STIXGeneral-Regular-73" d="M 998 1926 
L 1664 1523 
Q 1984 1331 2105 1164 
Q 2227 998 2227 736 
Q 2227 416 1961 176 
Q 1696 -64 1331 -64 
Q 1030 -64 864 -6 
Q 691 51 570 51 
Q 461 51 416 -26 
L 333 -26 
L 333 979 
L 435 979 
Q 538 512 730 294 
Q 922 77 1248 77 
Q 1485 77 1632 211 
Q 1779 346 1779 550 
Q 1779 845 1440 1030 
L 1094 1222 
Q 326 1651 326 2150 
Q 326 2522 566 2730 
Q 806 2938 1210 2938 
Q 1491 2938 1638 2867 
Q 1754 2816 1818 2816 
Q 1862 2816 1920 2880 
L 1990 2880 
L 2022 2010 
L 1926 2010 
Q 1818 2445 1654 2621 
Q 1491 2797 1203 2797 
Q 986 2797 854 2688 
Q 723 2579 723 2362 
Q 723 2253 796 2128 
Q 870 2003 998 1926 
z
" transform="scale(0.015625)"/>
     </defs>
     <use xlink:href="#STIXGeneral-Regular-46"/>
     <use xlink:href="#STIXGeneral-Regular-69" x="55.599991"/>
     <use xlink:href="#STIXGeneral-Regular-67" x="83.399979"/>
     <use xlink:href="#STIXGeneral-Regular-75" x="133.399963"/>
     <use xlink:href="#STIXGeneral-Regular-72" x="183.399948"/>
     <use xlink:href="#STIXGeneral-Regular-65" x="216.699936"/>
     <use xlink:href="#STIXGeneral-Regular-20" x="261.09993"/>
     <use xlink:href="#STIXGeneral-Regular-37" x="286.099915"/>
     <use xlink:href="#STIXGeneral-Regular-2e" x="336.099899"/>
     <use xlink:href="#STIXGeneral-Regular-37" x="361.099884"/>
     <use xlink:href="#STIXGeneral-Regular-3a" x="411.099869"/>
     <use xlink:href="#STIXGeneral-Regular-20" x="438.899857"/>
     <use xlink:href="#STIXGeneral-Regular-45" x="463.899841"/>
     <use xlink:href="#STIXGeneral-Regular-71" x="524.999832"/>
     <use xlink:href="#STIXGeneral-Regular-75" x="574.999817"/>
     <use xlink:href="#STIXGeneral-Regular-61" x="624.999802"/>
     <use xlink:href="#STIXGeneral-Regular-6c" x="669.399796"/>
     <use xlink:href="#STIXGeneral-Regular-6c" x="697.199783"/>
     <use xlink:href="#STIXGeneral-Regular-79" x="724.999771"/>
     <use xlink:href="#STIXGeneral-Regular-20" x="774.999756"/>
     <use xlink:href="#STIXGeneral-Regular-53" x="799.999741"/>
     <use xlink:href="#STIXGeneral-Regular-70" x="855.599731"/>
     <use xlink:href="#STIXGeneral-Regular-61" x="905.599716"/>
     <use xlink:href="#STIXGeneral-Regular-63" x="949.99971"/>
     <use xlink:href="#STIXGeneral-Regular-65" x="994.399704"/>
     <use xlink:href="#STIXGeneral-Regular-64" x="1038.799698"/>
     <use xlink:href="#STIXGeneral-Regular-20" x="1088.799683"/>
     <use xlink:href="#STIXGeneral-Regular-50" x="1113.799667"/>
     <use xlink:href="#STIXGeneral-Regular-6f" x="1169.499664"/>
     <use xlink:href="#STIXGeneral-Regular-69" x="1219.499649"/>
     <use xlink:href="#STIXGeneral-Regular-6e" x="1247.299637"/>
     <use xlink:href="#STIXGeneral-Regular-74" x="1297.299622"/>
     <use xlink:href="#STIXGeneral-Regular-73" x="1325.099609"/>
    </g>
   </g>
   <g id="legend_1">
    <g id="patch_7">
     <path d="M 233.181818 379.48 
L 287.181818 379.48 
Q 289.181818 379.48 289.181818 377.48 
L 289.181818 335.969063 
Q 289.181818 333.969063 287.181818 333.969063 
L 233.181818 333.969063 
Q 231.181818 333.969063 231.181818 335.969063 
L 231.181818 377.48 
Q 231.181818 379.48 233.181818 379.48 
z
" style="fill: #ffffff; opacity: 0.8; stroke: #cccccc; stroke-linejoin: miter"/>
    </g>
    <g id="line2d_18">
     <path d="M 235.181818 341.469063 
L 245.181818 341.469063 
L 255.181818 341.469063 
" style="fill: none; stroke: #1f77b4; stroke-width: 1.5; stroke-linecap: square"/>
    </g>
    <g id="text_16">
     <!-- $f(t)$ -->
     <g transform="translate(263.181818 344.969063) scale(0.1 -0.1)">
      <defs>
       <path id="STIXGeneral-Italic-66" d="M 262 2739 
L 858 2739 
Q 1107 3546 1318 3846 
Q 1664 4339 2163 4339 
Q 2400 4339 2557 4227 
Q 2714 4115 2714 3942 
Q 2714 3834 2634 3750 
Q 2554 3667 2445 3667 
Q 2355 3667 2281 3737 
Q 2208 3808 2208 3917 
Q 2208 3981 2240 4038 
Q 2272 4096 2272 4115 
Q 2272 4198 2131 4198 
Q 1862 4198 1676 3849 
Q 1491 3501 1350 2739 
L 2035 2739 
L 1997 2534 
L 1306 2534 
L 845 486 
Q 435 -1325 -435 -1325 
Q -653 -1325 -797 -1213 
Q -941 -1101 -941 -934 
Q -941 -826 -870 -746 
Q -800 -666 -698 -666 
Q -589 -666 -521 -733 
Q -454 -800 -454 -902 
Q -454 -947 -483 -1001 
Q -512 -1056 -512 -1088 
Q -512 -1190 -384 -1190 
Q 13 -1190 237 -154 
L 800 2534 
L 218 2534 
L 262 2739 
z
" transform="scale(0.015625)"/>
       <path id="STIXGeneral-Regular-28" d="M 1946 -1030 
L 1869 -1133 
Q 1126 -710 716 32 
Q 307 774 307 1613 
Q 307 3386 1888 4326 
L 1946 4224 
Q 1293 3667 1075 3126 
Q 858 2586 858 1632 
Q 858 685 1082 96 
Q 1306 -493 1946 -1030 
z
" transform="scale(0.015625)"/>
       <path id="STIXGeneral-Italic-74" d="M 1894 2739 
L 1862 2534 
L 1325 2534 
L 768 435 
Q 755 384 755 346 
Q 755 243 851 243 
Q 928 243 1030 342 
Q 1133 442 1370 749 
L 1453 704 
Q 1158 256 969 93 
Q 781 -70 538 -70 
Q 243 -70 243 166 
Q 243 230 346 640 
L 845 2534 
L 365 2534 
L 358 2573 
Q 358 2688 570 2733 
Q 730 2771 992 2979 
Q 1254 3187 1421 3437 
Q 1459 3494 1510 3494 
Q 1568 3494 1568 3443 
Q 1568 3411 1562 3398 
L 1382 2739 
L 1894 2739 
z
" transform="scale(0.015625)"/>
       <path id="STIXGeneral-Regular-29" d="M 186 4224 
L 262 4326 
Q 992 3891 1408 3148 
Q 1824 2406 1824 1581 
Q 1824 -166 243 -1133 
L 186 -1030 
Q 845 -486 1059 54 
Q 1274 595 1274 1562 
Q 1274 2534 1059 3120 
Q 845 3706 186 4224 
z
" transform="scale(0.015625)"/>
      </defs>
      <use xlink:href="#STIXGeneral-Italic-66" transform="translate(0 0.203125)"/>
      <use xlink:href="#STIXGeneral-Regular-28" transform="translate(27.799988 0.203125)"/>
      <use xlink:href="#STIXGeneral-Italic-74" transform="translate(61.099976 0.203125)"/>
      <use xlink:href="#STIXGeneral-Regular-29" transform="translate(88.899963 0.203125)"/>
     </g>
    </g>
    <g id="line2d_19">
     <path d="M 235.181818 355.639375 
L 245.181818 355.639375 
L 255.181818 355.639375 
" style="fill: none; stroke-dasharray: 5.55,2.4; stroke-dashoffset: 0; stroke: #ff7f0e; stroke-width: 1.5"/>
    </g>
    <g id="text_17">
     <!-- $p_5(t)$ -->
     <g transform="translate(263.181818 359.139375) scale(0.1 -0.1)">
      <defs>
       <path id="STIXGeneral-Italic-70" d="M 1376 2739 
L 1190 2099 
Q 1670 2822 2285 2822 
Q 2637 2822 2829 2611 
Q 3021 2400 3021 2022 
Q 3021 1235 2422 582 
Q 1824 -70 1120 -70 
Q 890 -70 678 38 
Q 422 -1018 422 -1024 
Q 422 -1126 508 -1168 
Q 595 -1210 819 -1210 
L 819 -1312 
L -480 -1312 
L -480 -1210 
Q -275 -1203 -188 -1120 
Q -102 -1037 -45 -806 
L 691 1958 
Q 794 2330 794 2413 
Q 794 2586 512 2586 
L 371 2586 
L 358 2682 
L 1357 2822 
Q 1389 2822 1389 2797 
Q 1382 2765 1376 2739 
z
M 2445 2003 
Q 2445 2285 2352 2416 
Q 2259 2547 2048 2547 
Q 1798 2547 1548 2329 
Q 1299 2112 1184 1818 
Q 1043 1453 905 953 
Q 768 454 768 294 
Q 768 186 854 118 
Q 941 51 1075 51 
Q 1574 51 2003 659 
Q 2445 1274 2445 2003 
z
" transform="scale(0.015625)"/>
      </defs>
      <use xlink:href="#STIXGeneral-Italic-70" transform="translate(0 0.40625)"/>
      <use xlink:href="#STIXGeneral-Regular-35" transform="translate(50.399994 -12.821875) scale(0.7)"/>
      <use xlink:href="#STIXGeneral-Regular-28" transform="translate(89.809358 0.40625)"/>
      <use xlink:href="#STIXGeneral-Italic-74" transform="translate(123.109346 0.40625)"/>
      <use xlink:href="#STIXGeneral-Regular-29" transform="translate(150.909334 0.40625)"/>
     </g>
    </g>
    <g id="line2d_20">
     <path d="M 235.181818 369.809687 
L 245.181818 369.809687 
L 255.181818 369.809687 
" style="fill: none; stroke-dasharray: 1.5,2.475; stroke-dashoffset: 0; stroke: #2ca02c; stroke-width: 1.5"/>
    </g>
    <g id="text_18">
     <!-- $p_{10}(t)$ -->
     <g transform="translate(263.181818 373.309687) scale(0.1 -0.1)">
      <use xlink:href="#STIXGeneral-Italic-70" transform="translate(0 0.40625)"/>
      <use xlink:href="#STIXGeneral-Regular-31" transform="translate(50.399994 -12.821875) scale(0.7)"/>
      <use xlink:href="#STIXGeneral-Regular-30" transform="translate(85.399983 -12.821875) scale(0.7)"/>
      <use xlink:href="#STIXGeneral-Regular-28" transform="translate(124.809348 0.40625)"/>
      <use xlink:href="#STIXGeneral-Italic-74" transform="translate(158.109335 0.40625)"/>
      <use xlink:href="#STIXGeneral-Regular-29" transform="translate(185.909323 0.40625)"/>
     </g>
    </g>
   </g>
  </g>
  <g id="axes_2">
   <g id="patch_8">
    <path d="M 473.236364 384.48 
L 777.6 384.48 
L 777.6 51.84 
L 473.236364 51.84 
z
" style="fill: #ffffff"/>
   </g>
   <g id="matplotlib.axis_3">
    <g id="xtick_10">
     <g id="line2d_21">
      <g>
       <use xlink:href="#m4198bbc410" x="487.071074" y="384.48" style="stroke: #000000; stroke-width: 0.8"/>
      </g>
     </g>
     <g id="text_19">
      <!-- −1.00 -->
      <g transform="translate(474.896074 398.309687) scale(0.1 -0.1)">
       <use xlink:href="#STIXGeneral-Regular-2212"/>
       <use xlink:href="#STIXGeneral-Regular-31" x="68.499985"/>
       <use xlink:href="#STIXGeneral-Regular-2e" x="118.499969"/>
       <use xlink:href="#STIXGeneral-Regular-30" x="143.499954"/>
       <use xlink:href="#STIXGeneral-Regular-30" x="193.499939"/>
      </g>
     </g>
    </g>
    <g id="xtick_11">
     <g id="line2d_22">
      <g>
       <use xlink:href="#m4198bbc410" x="521.657851" y="384.48" style="stroke: #000000; stroke-width: 0.8"/>
      </g>
     </g>
     <g id="text_20">
      <!-- −0.75 -->
      <g transform="translate(509.482851 398.309687) scale(0.1 -0.1)">
       <use xlink:href="#STIXGeneral-Regular-2212"/>
       <use xlink:href="#STIXGeneral-Regular-30" x="68.499985"/>
       <use xlink:href="#STIXGeneral-Regular-2e" x="118.499969"/>
       <use xlink:href="#STIXGeneral-Regular-37" x="143.499954"/>
       <use xlink:href="#STIXGeneral-Regular-35" x="193.499939"/>
      </g>
     </g>
    </g>
    <g id="xtick_12">
     <g id="line2d_23">
      <g>
       <use xlink:href="#m4198bbc410" x="556.244628" y="384.48" style="stroke: #000000; stroke-width: 0.8"/>
      </g>
     </g>
     <g id="text_21">
      <!-- −0.50 -->
      <g transform="translate(544.069628 398.309687) scale(0.1 -0.1)">
       <use xlink:href="#STIXGeneral-Regular-2212"/>
       <use xlink:href="#STIXGeneral-Regular-30" x="68.499985"/>
       <use xlink:href="#STIXGeneral-Regular-2e" x="118.499969"/>
       <use xlink:href="#STIXGeneral-Regular-35" x="143.499954"/>
       <use xlink:href="#STIXGeneral-Regular-30" x="193.499939"/>
      </g>
     </g>
    </g>
    <g id="xtick_13">
     <g id="line2d_24">
      <g>
       <use xlink:href="#m4198bbc410" x="590.831405" y="384.48" style="stroke: #000000; stroke-width: 0.8"/>
      </g>
     </g>
     <g id="text_22">
      <!-- −0.25 -->
      <g transform="translate(578.656405 398.309687) scale(0.1 -0.1)">
       <use xlink:href="#STIXGeneral-Regular-2212"/>
       <use xlink:href="#STIXGeneral-Regular-30" x="68.499985"/>
       <use xlink:href="#STIXGeneral-Regular-2e" x="118.499969"/>
       <use xlink:href="#STIXGeneral-Regular-32" x="143.499954"/>
       <use xlink:href="#STIXGeneral-Regular-35" x="193.499939"/>
      </g>
     </g>
    </g>
    <g id="xtick_14">
     <g id="line2d_25">
      <g>
       <use xlink:href="#m4198bbc410" x="625.418182" y="384.48" style="stroke: #000000; stroke-width: 0.8"/>
      </g>
     </g>
     <g id="text_23">
      <!-- 0.00 -->
      <g transform="translate(616.668182 398.309687) scale(0.1 -0.1)">
       <use xlink:href="#STIXGeneral-Regular-30"/>
       <use xlink:href="#STIXGeneral-Regular-2e" x="49.999985"/>
       <use xlink:href="#STIXGeneral-Regular-30" x="74.999969"/>
       <use xlink:href="#STIXGeneral-Regular-30" x="124.999954"/>
      </g>
     </g>
    </g>
    <g id="xtick_15">
     <g id="line2d_26">
      <g>
       <use xlink:href="#m4198bbc410" x="660.004959" y="384.48" style="stroke: #000000; stroke-width: 0.8"/>
      </g>
     </g>
     <g id="text_24">
      <!-- 0.25 -->
      <g transform="translate(651.254959 398.309687) scale(0.1 -0.1)">
       <use xlink:href="#STIXGeneral-Regular-30"/>
       <use xlink:href="#STIXGeneral-Regular-2e" x="49.999985"/>
       <use xlink:href="#STIXGeneral-Regular-32" x="74.999969"/>
       <use xlink:href="#STIXGeneral-Regular-35" x="124.999954"/>
      </g>
     </g>
    </g>
    <g id="xtick_16">
     <g id="line2d_27">
      <g>
       <use xlink:href="#m4198bbc410" x="694.591736" y="384.48" style="stroke: #000000; stroke-width: 0.8"/>
      </g>
     </g>
     <g id="text_25">
      <!-- 0.50 -->
      <g transform="translate(685.841736 398.309687) scale(0.1 -0.1)">
       <use xlink:href="#STIXGeneral-Regular-30"/>
       <use xlink:href="#STIXGeneral-Regular-2e" x="49.999985"/>
       <use xlink:href="#STIXGeneral-Regular-35" x="74.999969"/>
       <use xlink:href="#STIXGeneral-Regular-30" x="124.999954"/>
      </g>
     </g>
    </g>
    <g id="xtick_17">
     <g id="line2d_28">
      <g>
       <use xlink:href="#m4198bbc410" x="729.178512" y="384.48" style="stroke: #000000; stroke-width: 0.8"/>
      </g>
     </g>
     <g id="text_26">
      <!-- 0.75 -->
      <g transform="translate(720.428512 398.309687) scale(0.1 -0.1)">
       <use xlink:href="#STIXGeneral-Regular-30"/>
       <use xlink:href="#STIXGeneral-Regular-2e" x="49.999985"/>
       <use xlink:href="#STIXGeneral-Regular-37" x="74.999969"/>
       <use xlink:href="#STIXGeneral-Regular-35" x="124.999954"/>
      </g>
     </g>
    </g>
    <g id="xtick_18">
     <g id="line2d_29">
      <g>
       <use xlink:href="#m4198bbc410" x="763.765289" y="384.48" style="stroke: #000000; stroke-width: 0.8"/>
      </g>
     </g>
     <g id="text_27">
      <!-- 1.00 -->
      <g transform="translate(755.015289 398.309687) scale(0.1 -0.1)">
       <use xlink:href="#STIXGeneral-Regular-31"/>
       <use xlink:href="#STIXGeneral-Regular-2e" x="49.999985"/>
       <use xlink:href="#STIXGeneral-Regular-30" x="74.999969"/>
       <use xlink:href="#STIXGeneral-Regular-30" x="124.999954"/>
      </g>
     </g>
    </g>
   </g>
   <g id="matplotlib.axis_4">
    <g id="ytick_6">
     <g id="line2d_30">
      <g>
       <use xlink:href="#mdc51bb96e4" x="473.236364" y="334.282967" style="stroke: #000000; stroke-width: 0.8"/>
      </g>
     </g>
    </g>
    <g id="ytick_7">
     <g id="line2d_31">
      <g>
       <use xlink:href="#mdc51bb96e4" x="473.236364" y="266.051286" style="stroke: #000000; stroke-width: 0.8"/>
      </g>
     </g>
    </g>
    <g id="ytick_8">
     <g id="line2d_32">
      <g>
       <use xlink:href="#mdc51bb96e4" x="473.236364" y="197.819606" style="stroke: #000000; stroke-width: 0.8"/>
      </g>
     </g>
    </g>
    <g id="ytick_9">
     <g id="line2d_33">
      <g>
       <use xlink:href="#mdc51bb96e4" x="473.236364" y="129.587925" style="stroke: #000000; stroke-width: 0.8"/>
      </g>
     </g>
    </g>
    <g id="ytick_10">
     <g id="line2d_34">
      <g>
       <use xlink:href="#mdc51bb96e4" x="473.236364" y="61.356244" style="stroke: #000000; stroke-width: 0.8"/>
      </g>
     </g>
    </g>
   </g>
   <g id="line2d_35">
    <path d="M 487.071074 329.034376 
L 498.860051 328.057698 
L 508.56862 327.037464 
L 516.89025 325.954149 
L 524.518412 324.738614 
L 531.453104 323.394424 
L 537.000858 322.110854 
L 542.548611 320.5955 
L 547.402896 319.035418 
L 551.563711 317.48641 
L 555.724526 315.70221 
L 559.191872 314.002369 
L 562.659218 312.074291 
L 566.126564 309.878935 
L 569.59391 307.369682 
L 572.367787 305.099269 
L 575.141664 302.559429 
L 577.915541 299.712304 
L 580.689418 296.515022 
L 583.463295 292.919623 
L 586.237171 288.873429 
L 589.011048 284.320215 
L 591.784925 279.202664 
L 594.558802 273.466835 
L 597.332679 267.069613 
L 600.106556 259.990313 
L 602.880432 252.247579 
L 606.347779 241.767216 
L 615.362878 213.739296 
L 617.443286 208.286287 
L 618.830224 205.140601 
L 620.217163 202.476677 
L 621.604101 200.364214 
L 622.99104 198.861629 
L 623.684509 198.353246 
L 624.377978 198.012198 
L 625.071447 197.841032 
L 625.764916 197.841032 
L 626.458386 198.012198 
L 627.151855 198.353246 
L 627.845324 198.861629 
L 628.538793 199.533587 
L 629.925732 201.347549 
L 631.31267 203.743847 
L 632.699609 206.657906 
L 634.086547 210.015961 
L 636.166955 215.712984 
L 638.940831 224.129622 
L 647.955931 252.247579 
L 650.729808 259.990313 
L 653.503685 267.069613 
L 656.277562 273.466835 
L 659.051439 279.202664 
L 661.825315 284.320215 
L 664.599192 288.873429 
L 667.373069 292.919623 
L 670.146946 296.515022 
L 672.920823 299.712304 
L 675.6947 302.559429 
L 678.468576 305.099269 
L 681.242453 307.369682 
L 684.709799 309.878935 
L 688.177145 312.074291 
L 691.644491 314.002369 
L 695.111837 315.70221 
L 699.272653 317.48641 
L 703.433468 319.035418 
L 708.287752 320.5955 
L 713.835506 322.110854 
L 719.38326 323.394424 
L 725.624483 324.615446 
L 732.559175 325.75069 
L 740.880805 326.871863 
L 749.895905 327.857752 
L 760.297943 328.772095 
L 763.765289 329.034376 
L 763.765289 329.034376 
" clip-path="url(#p9d1bb98a77)" style="fill: none; stroke: #1f77b4; stroke-width: 1.5; stroke-linecap: square"/>
   </g>
   <g id="line2d_36">
    <path d="M 487.071074 326.116625 
L 489.844951 327.736808 
L 492.618828 329.027354 
L 495.392705 330.006482 
L 498.166582 330.692036 
L 500.940459 331.10148 
L 503.714335 331.251906 
L 506.488212 331.160025 
L 509.262089 330.842173 
L 512.035966 330.31431 
L 514.809843 329.59202 
L 518.277189 328.438873 
L 521.744535 327.034536 
L 525.211881 325.406964 
L 529.372696 323.197203 
L 534.226981 320.321881 
L 539.774734 316.726904 
L 546.015957 312.403064 
L 556.417995 304.870231 
L 567.513503 296.897475 
L 574.448195 292.189575 
L 579.995949 288.672242 
L 585.543702 285.433353 
L 590.397987 282.864302 
L 595.252271 280.571241 
L 599.413086 278.843501 
L 603.573902 277.348882 
L 607.734717 276.098348 
L 611.895532 275.100954 
L 616.056347 274.363852 
L 620.217163 273.892285 
L 623.684509 273.704616 
L 627.151855 273.704616 
L 630.619201 273.892285 
L 634.086547 274.266704 
L 638.247362 274.959863 
L 642.408177 275.91432 
L 646.568993 277.123241 
L 650.729808 278.577889 
L 654.890623 280.267618 
L 659.051439 282.179876 
L 663.905723 284.672699 
L 668.760007 287.422409 
L 674.307761 290.841136 
L 680.548984 294.979038 
L 688.177145 300.341685 
L 711.755098 317.191183 
L 717.302852 320.749827 
L 722.157137 323.583188 
L 726.317952 325.749026 
L 729.785298 327.334144 
L 733.252644 328.690508 
L 736.71999 329.789982 
L 739.493867 330.465106 
L 742.267744 330.941941 
L 745.041621 331.204811 
L 747.815497 331.237662 
L 750.589374 331.024063 
L 753.363251 330.547208 
L 756.137128 329.789913 
L 758.911005 328.734618 
L 761.684882 327.363385 
L 763.765289 326.116625 
L 763.765289 326.116625 
" clip-path="url(#p9d1bb98a77)" style="fill: none; stroke-dasharray: 5.55,2.4; stroke-dashoffset: 0; stroke: #ff7f0e; stroke-width: 1.5"/>
   </g>
   <g id="line2d_37">
    <path d="M 487.071074 335.009891 
L 487.764544 331.696647 
L 488.458013 329.003552 
L 489.151482 326.862813 
L 489.844951 325.211543 
L 490.53842 323.991507 
L 491.23189 323.148888 
L 491.925359 322.634049 
L 492.618828 322.401315 
L 493.312297 322.408756 
L 494.005766 322.617985 
L 494.699236 322.993951 
L 496.086174 324.121482 
L 498.166582 326.35872 
L 501.633928 330.243376 
L 503.020866 331.540619 
L 504.407805 332.591783 
L 505.794743 333.360401 
L 507.181681 333.82741 
L 508.56862 333.988248 
L 509.955558 333.850233 
L 511.342497 333.430217 
L 512.729435 332.752486 
L 514.116374 331.846897 
L 516.196781 330.135896 
L 518.277189 328.111975 
L 522.438004 323.628437 
L 525.90535 320.001003 
L 527.985758 318.075407 
L 530.066165 316.428754 
L 532.146573 315.113351 
L 534.226981 314.162197 
L 535.613919 313.738156 
L 537.000858 313.482304 
L 538.387796 313.390937 
L 539.774734 313.457182 
L 541.855142 313.829888 
L 543.93555 314.490492 
L 546.015957 315.383608 
L 548.789834 316.823692 
L 555.724526 320.583354 
L 557.804934 321.439956 
L 559.885341 322.038164 
L 561.27228 322.259484 
L 562.659218 322.31689 
L 564.046157 322.193249 
L 565.433095 321.873083 
L 566.820034 321.342712 
L 568.206972 320.59037 
L 569.59391 319.606311 
L 570.980849 318.382886 
L 572.367787 316.914599 
L 573.754726 315.198157 
L 575.835133 312.156443 
L 577.915541 308.560163 
L 579.995949 304.426057 
L 582.076356 299.781557 
L 584.156764 294.664242 
L 586.930641 287.1882 
L 589.704517 279.090972 
L 593.865333 266.130449 
L 603.573902 235.330288 
L 606.347779 227.26607 
L 609.121655 219.877595 
L 611.202063 214.883571 
L 613.282471 210.432249 
L 615.362878 206.582427 
L 616.749817 204.375583 
L 618.136755 202.471959 
L 619.523694 200.882815 
L 620.910632 199.617561 
L 622.29757 198.683698 
L 623.684509 198.086763 
L 625.071447 197.8303 
L 626.458386 197.91583 
L 627.845324 198.342846 
L 629.232262 199.108813 
L 630.619201 200.209188 
L 632.006139 201.637445 
L 633.393078 203.385122 
L 634.780016 205.441876 
L 636.166955 207.795549 
L 638.247362 211.851941 
L 640.32777 216.491057 
L 642.408177 221.651695 
L 645.182054 229.225822 
L 648.6494 239.558211 
L 653.503685 254.969997 
L 660.438377 276.987647 
L 663.905723 287.1882 
L 666.6796 294.664242 
L 669.453477 301.384316 
L 671.533884 305.862372 
L 673.614292 309.819732 
L 675.6947 313.232477 
L 677.775107 316.087517 
L 679.162046 317.679608 
L 680.548984 319.024914 
L 681.935922 320.127834 
L 683.322861 320.994945 
L 684.709799 321.634955 
L 686.096738 322.05863 
L 687.483676 322.278708 
L 688.870615 322.309784 
L 690.257553 322.168182 
L 692.337961 321.671557 
L 694.418368 320.893161 
L 697.192245 319.541633 
L 706.207345 314.765381 
L 708.287752 314.020624 
L 710.36816 313.546452 
L 711.755098 313.404905 
L 713.142037 313.416418 
L 714.528975 313.589361 
L 715.915914 313.929051 
L 717.302852 314.437527 
L 718.689791 315.113351 
L 720.770198 316.428754 
L 722.850606 318.075407 
L 724.931013 320.001003 
L 727.70489 322.876549 
L 733.946113 329.489762 
L 736.026521 331.319101 
L 737.413459 332.326137 
L 738.800398 333.12181 
L 740.187336 333.674109 
L 741.574275 333.955742 
L 742.961213 333.945893 
L 744.348151 333.6322 
L 745.73509 333.012974 
L 747.122028 332.099684 
L 748.508967 330.919712 
L 750.589374 328.757143 
L 754.75019 324.121482 
L 756.137128 322.993951 
L 756.830597 322.617985 
L 757.524066 322.408756 
L 758.217536 322.401315 
L 758.911005 322.634049 
L 759.604474 323.148888 
L 760.297943 323.991507 
L 760.991412 325.211543 
L 761.684882 326.862813 
L 762.378351 329.003552 
L 763.07182 331.696647 
L 763.765289 335.009891 
L 763.765289 335.009891 
" clip-path="url(#p9d1bb98a77)" style="fill: none; stroke-dasharray: 1.5,2.475; stroke-dashoffset: 0; stroke: #2ca02c; stroke-width: 1.5"/>
   </g>
   <g id="patch_9">
    <path d="M 473.236364 384.48 
L 473.236364 51.84 
" style="fill: none; stroke: #000000; stroke-width: 0.8; stroke-linejoin: miter; stroke-linecap: square"/>
   </g>
   <g id="patch_10">
    <path d="M 777.6 384.48 
L 777.6 51.84 
" style="fill: none; stroke: #000000; stroke-width: 0.8; stroke-linejoin: miter; stroke-linecap: square"/>
   </g>
   <g id="patch_11">
    <path d="M 473.236364 384.48 
L 777.6 384.48 
" style="fill: none; stroke: #000000; stroke-width: 0.8; stroke-linejoin: miter; stroke-linecap: square"/>
   </g>
   <g id="patch_12">
    <path d="M 473.236364 51.84 
L 777.6 51.84 
" style="fill: none; stroke: #000000; stroke-width: 0.8; stroke-linejoin: miter; stroke-linecap: square"/>
   </g>
   <g id="text_28">
    <!-- Figure 7.8: Chebyshev Points -->
    <g transform="translate(554.407244 45.84) scale(0.12 -0.12)">
     <defs>
      <path id="STIXGeneral-Regular-38" d="M 2848 992 
Q 2848 499 2505 204 
Q 2163 -90 1587 -90 
Q 1050 -90 704 204 
Q 358 499 358 954 
Q 358 1293 524 1533 
Q 691 1773 1190 2125 
Q 710 2522 553 2765 
Q 397 3008 397 3328 
Q 397 3782 745 4054 
Q 1094 4326 1638 4326 
Q 2106 4326 2410 4060 
Q 2714 3795 2714 3411 
Q 2714 3059 2531 2848 
Q 2349 2637 1856 2374 
Q 2432 1990 2640 1689 
Q 2848 1389 2848 992 
z
M 2272 3411 
Q 2272 3744 2086 3945 
Q 1901 4147 1574 4147 
Q 1248 4147 1059 3977 
Q 870 3808 870 3513 
Q 870 3219 1059 2979 
Q 1248 2739 1670 2490 
Q 1997 2682 2134 2896 
Q 2272 3110 2272 3411 
z
M 1734 1741 
L 1357 1997 
Q 1075 1766 960 1545 
Q 845 1325 845 1011 
Q 845 576 1065 333 
Q 1286 90 1658 90 
Q 1971 90 2166 285 
Q 2362 480 2362 794 
Q 2362 1082 2214 1299 
Q 2067 1517 1734 1741 
z
" transform="scale(0.015625)"/>
      <path id="STIXGeneral-Regular-43" d="M 3930 838 
L 4051 723 
Q 3482 -90 2304 -90 
Q 1376 -90 794 480 
Q 179 1082 179 2080 
Q 179 3014 755 3661 
Q 1357 4326 2310 4326 
Q 2720 4326 3072 4230 
Q 3475 4115 3514 4115 
Q 3725 4115 3782 4326 
L 3910 4326 
L 3968 2874 
L 3821 2874 
Q 3718 3334 3488 3584 
Q 3034 4070 2458 4070 
Q 1747 4070 1334 3548 
Q 922 3027 922 2182 
Q 922 1152 1382 653 
Q 1811 192 2522 192 
Q 2944 192 3251 339 
Q 3558 486 3930 838 
z
" transform="scale(0.015625)"/>
      <path id="STIXGeneral-Regular-68" d="M 3117 0 
L 1760 0 
L 1760 96 
Q 2042 128 2118 224 
Q 2195 320 2195 653 
L 2195 1920 
Q 2195 2598 1722 2598 
Q 1530 2598 1370 2508 
Q 1210 2419 1005 2195 
L 1005 653 
Q 1005 320 1081 224 
Q 1158 128 1440 96 
L 1440 0 
L 58 0 
L 58 96 
Q 333 134 400 224 
Q 467 314 467 653 
L 467 3667 
Q 467 3872 406 3933 
Q 346 3994 141 3994 
Q 83 3994 64 3987 
L 64 4090 
L 237 4141 
Q 730 4288 973 4371 
L 1005 4352 
L 1005 2406 
Q 1229 2694 1446 2819 
Q 1664 2944 1946 2944 
Q 2733 2944 2733 1926 
L 2733 653 
Q 2733 320 2793 233 
Q 2854 147 3117 96 
L 3117 0 
z
" transform="scale(0.015625)"/>
      <path id="STIXGeneral-Regular-62" d="M 979 4358 
L 979 2406 
Q 1082 2650 1315 2797 
Q 1549 2944 1843 2944 
Q 2349 2944 2672 2541 
Q 2995 2138 2995 1536 
Q 2995 832 2566 384 
Q 2138 -64 1498 -64 
Q 1107 -64 774 67 
Q 442 198 442 358 
L 442 3622 
Q 442 3859 384 3926 
Q 326 3994 128 3994 
Q 83 3994 19 3981 
L 19 4090 
L 211 4147 
Q 864 4346 947 4371 
L 979 4358 
z
M 979 2035 
L 979 474 
Q 979 326 1161 233 
Q 1344 141 1600 141 
Q 1978 141 2195 416 
Q 2432 710 2432 1261 
Q 2432 1888 2182 2240 
Q 1971 2541 1613 2541 
Q 1357 2541 1168 2390 
Q 979 2240 979 2035 
z
" transform="scale(0.015625)"/>
      <path id="STIXGeneral-Regular-76" d="M 3053 2880 
L 3053 2784 
Q 2906 2771 2835 2688 
Q 2765 2605 2637 2285 
L 1818 230 
Q 1690 -90 1638 -90 
Q 1587 -90 1523 77 
Q 1510 96 1497 141 
Q 1485 186 1472 211 
L 704 2048 
Q 499 2534 403 2652 
Q 307 2771 122 2784 
L 122 2880 
L 1376 2880 
L 1376 2784 
Q 1210 2771 1146 2732 
Q 1082 2694 1082 2611 
Q 1082 2509 1139 2368 
L 1792 730 
L 2426 2387 
Q 2464 2483 2464 2579 
Q 2464 2758 2163 2784 
L 2163 2880 
L 3053 2880 
z
" transform="scale(0.015625)"/>
     </defs>
     <use xlink:href="#STIXGeneral-Regular-46"/>
     <use xlink:href="#STIXGeneral-Regular-69" x="55.599991"/>
     <use xlink:href="#STIXGeneral-Regular-67" x="83.399979"/>
     <use xlink:href="#STIXGeneral-Regular-75" x="133.399963"/>
     <use xlink:href="#STIXGeneral-Regular-72" x="183.399948"/>
     <use xlink:href="#STIXGeneral-Regular-65" x="216.699936"/>
     <use xlink:href="#STIXGeneral-Regular-20" x="261.09993"/>
     <use xlink:href="#STIXGeneral-Regular-37" x="286.099915"/>
     <use xlink:href="#STIXGeneral-Regular-2e" x="336.099899"/>
     <use xlink:href="#STIXGeneral-Regular-38" x="361.099884"/>
     <use xlink:href="#STIXGeneral-Regular-3a" x="411.099869"/>
     <use xlink:href="#STIXGeneral-Regular-20" x="438.899857"/>
     <use xlink:href="#STIXGeneral-Regular-43" x="463.899841"/>
     <use xlink:href="#STIXGeneral-Regular-68" x="530.599838"/>
     <use xlink:href="#STIXGeneral-Regular-65" x="580.599823"/>
     <use xlink:href="#STIXGeneral-Regular-62" x="624.999817"/>
     <use xlink:href="#STIXGeneral-Regular-79" x="674.999802"/>
     <use xlink:href="#STIXGeneral-Regular-73" x="724.999786"/>
     <use xlink:href="#STIXGeneral-Regular-68" x="763.89978"/>
     <use xlink:href="#STIXGeneral-Regular-65" x="813.899765"/>
     <use xlink:href="#STIXGeneral-Regular-76" x="858.299759"/>
     <use xlink:href="#STIXGeneral-Regular-20" x="908.299744"/>
     <use xlink:href="#STIXGeneral-Regular-50" x="933.299728"/>
     <use xlink:href="#STIXGeneral-Regular-6f" x="988.999725"/>
     <use xlink:href="#STIXGeneral-Regular-69" x="1038.99971"/>
     <use xlink:href="#STIXGeneral-Regular-6e" x="1066.799698"/>
     <use xlink:href="#STIXGeneral-Regular-74" x="1116.799683"/>
     <use xlink:href="#STIXGeneral-Regular-73" x="1144.59967"/>
    </g>
   </g>
   <g id="legend_2">
    <g id="patch_13">
     <path d="M 716.6 102.350937 
L 770.6 102.350937 
Q 772.6 102.350937 772.6 100.350937 
L 772.6 58.84 
Q 772.6 56.84 770.6 56.84 
L 716.6 56.84 
Q 714.6 56.84 714.6 58.84 
L 714.6 100.350937 
Q 714.6 102.350937 716.6 102.350937 
z
" style="fill: #ffffff; opacity: 0.8; stroke: #cccccc; stroke-linejoin: miter"/>
    </g>
    <g id="line2d_38">
     <path d="M 718.6 64.34 
L 728.6 64.34 
L 738.6 64.34 
" style="fill: none; stroke: #1f77b4; stroke-width: 1.5; stroke-linecap: square"/>
    </g>
    <g id="text_29">
     <!-- $f(t)$ -->
     <g transform="translate(746.6 67.84) scale(0.1 -0.1)">
      <use xlink:href="#STIXGeneral-Italic-66" transform="translate(0 0.203125)"/>
      <use xlink:href="#STIXGeneral-Regular-28" transform="translate(27.799988 0.203125)"/>
      <use xlink:href="#STIXGeneral-Italic-74" transform="translate(61.099976 0.203125)"/>
      <use xlink:href="#STIXGeneral-Regular-29" transform="translate(88.899963 0.203125)"/>
     </g>
    </g>
    <g id="line2d_39">
     <path d="M 718.6 78.510312 
L 728.6 78.510312 
L 738.6 78.510312 
" style="fill: none; stroke-dasharray: 5.55,2.4; stroke-dashoffset: 0; stroke: #ff7f0e; stroke-width: 1.5"/>
    </g>
    <g id="text_30">
     <!-- $p_5(t)$ -->
     <g transform="translate(746.6 82.010312) scale(0.1 -0.1)">
      <use xlink:href="#STIXGeneral-Italic-70" transform="translate(0 0.40625)"/>
      <use xlink:href="#STIXGeneral-Regular-35" transform="translate(50.399994 -12.821875) scale(0.7)"/>
      <use xlink:href="#STIXGeneral-Regular-28" transform="translate(89.809358 0.40625)"/>
      <use xlink:href="#STIXGeneral-Italic-74" transform="translate(123.109346 0.40625)"/>
      <use xlink:href="#STIXGeneral-Regular-29" transform="translate(150.909334 0.40625)"/>
     </g>
    </g>
    <g id="line2d_40">
     <path d="M 718.6 92.680625 
L 728.6 92.680625 
L 738.6 92.680625 
" style="fill: none; stroke-dasharray: 1.5,2.475; stroke-dashoffset: 0; stroke: #2ca02c; stroke-width: 1.5"/>
    </g>
    <g id="text_31">
     <!-- $p_{10}(t)$ -->
     <g transform="translate(746.6 96.180625) scale(0.1 -0.1)">
      <use xlink:href="#STIXGeneral-Italic-70" transform="translate(0 0.40625)"/>
      <use xlink:href="#STIXGeneral-Regular-31" transform="translate(50.399994 -12.821875) scale(0.7)"/>
      <use xlink:href="#STIXGeneral-Regular-30" transform="translate(85.399983 -12.821875) scale(0.7)"/>
      <use xlink:href="#STIXGeneral-Regular-28" transform="translate(124.809348 0.40625)"/>
      <use xlink:href="#STIXGeneral-Italic-74" transform="translate(158.109335 0.40625)"/>
      <use xlink:href="#STIXGeneral-Regular-29" transform="translate(185.909323 0.40625)"/>
     </g>
    </g>
   </g>
  </g>
 </g>
 <defs>
  <clipPath id="p6e915c32c0">
   <rect x="108" y="51.84" width="304.363636" height="332.64"/>
  </clipPath>
  <clipPath id="p9d1bb98a77">
   <rect x="473.236364" y="51.84" width="304.363636" height="332.64"/>
  </clipPath>
 </defs>
</svg>
